<svg id="svg" version="1.1" xmlns="http://www.w3.org/2000/svg" xmlns:xlink="http://www.w3.org/1999/xlink" width="400" height="388.2666666666667" viewBox="0, 0, 400,388.2666666666667"><g id="svgg"><path id="path0" d="M3.107 1.222 C 0.427 2.504,0.015 2.875,0.006 4.019 C -0.000 4.758,1.117 7.422,1.578 7.767 C 1.720 7.874,1.960 8.354,2.110 8.835 C 2.260 9.316,2.523 9.709,2.694 9.709 C 2.866 9.709,3.226 10.495,3.495 11.456 C 3.764 12.417,4.098 13.204,4.237 13.204 C 4.377 13.204,4.997 14.340,5.616 15.728 C 6.236 17.117,6.871 18.252,7.030 18.252 C 7.188 18.252,7.432 18.775,7.572 19.413 C 7.712 20.051,7.958 20.654,8.118 20.753 C 8.277 20.852,9.003 22.121,9.730 23.573 C 10.457 25.025,11.162 26.301,11.297 26.408 C 11.431 26.515,11.776 27.257,12.062 28.058 C 12.349 28.859,12.695 29.515,12.832 29.515 C 12.969 29.515,13.290 30.214,13.546 31.068 C 13.802 31.922,14.161 32.621,14.342 32.621 C 14.524 32.621,14.793 33.100,14.940 33.685 C 15.087 34.271,15.324 34.839,15.468 34.948 C 15.611 35.057,16.951 37.592,18.447 40.583 C 19.942 43.573,21.258 46.107,21.372 46.214 C 21.486 46.320,22.958 49.204,24.644 52.621 C 26.330 56.039,28.366 59.981,29.168 61.383 C 29.971 62.784,30.746 64.400,30.890 64.975 C 31.034 65.549,31.270 66.019,31.414 66.019 C 31.557 66.019,32.182 67.155,32.801 68.544 C 33.420 69.932,34.070 71.068,34.245 71.068 C 34.420 71.068,34.563 71.254,34.563 71.481 C 34.563 72.046,36.901 76.852,37.294 77.095 C 37.468 77.202,37.725 77.813,37.865 78.451 C 38.005 79.089,38.252 79.612,38.413 79.612 C 38.574 79.612,39.300 80.922,40.026 82.524 C 40.752 84.126,41.466 85.437,41.613 85.437 C 41.760 85.437,41.995 85.961,42.136 86.602 C 42.277 87.243,42.518 87.767,42.671 87.767 C 42.825 87.767,43.185 88.422,43.472 89.223 C 43.758 90.024,44.099 90.767,44.229 90.874 C 44.596 91.175,46.602 95.366,46.602 95.832 C 46.602 96.060,46.737 96.304,46.902 96.375 C 47.066 96.447,47.809 97.728,48.552 99.223 C 49.295 100.718,49.992 102.029,50.100 102.136 C 50.208 102.243,51.432 104.602,52.818 107.379 C 54.205 110.155,55.471 112.485,55.631 112.557 C 55.791 112.628,55.922 112.872,55.922 113.100 C 55.922 113.667,58.332 118.513,58.932 119.151 C 59.199 119.435,59.417 119.917,59.417 120.222 C 59.417 120.527,59.564 120.777,59.744 120.777 C 59.923 120.777,60.301 121.476,60.583 122.330 C 60.864 123.184,61.242 123.883,61.421 123.883 C 61.601 123.883,61.748 124.099,61.748 124.363 C 61.748 124.827,63.671 128.926,64.074 129.320 C 64.183 129.427,65.495 131.961,66.990 134.951 C 68.485 137.942,69.806 140.476,69.925 140.583 C 70.044 140.689,70.383 141.388,70.680 142.136 C 70.976 142.883,71.315 143.583,71.434 143.689 C 71.553 143.796,72.872 146.330,74.365 149.320 C 75.858 152.311,77.542 155.544,78.108 156.505 C 78.674 157.466,79.267 158.689,79.426 159.223 C 79.586 159.757,79.825 160.282,79.957 160.388 C 80.090 160.495,80.721 161.674,81.361 163.009 C 82.001 164.343,82.655 165.436,82.816 165.436 C 82.976 165.436,83.107 165.666,83.107 165.947 C 83.107 166.227,83.920 168.019,84.915 169.927 C 85.909 171.836,87.080 174.097,87.518 174.951 C 87.955 175.806,88.452 176.563,88.622 176.634 C 88.793 176.706,88.932 176.965,88.932 177.211 C 88.932 177.678,90.896 181.797,91.280 182.136 C 91.401 182.243,91.743 182.942,92.039 183.689 C 92.335 184.437,92.675 185.136,92.793 185.243 C 92.912 185.350,93.582 186.573,94.281 187.961 C 94.980 189.350,95.711 190.748,95.906 191.068 C 96.101 191.388,96.752 192.699,97.353 193.981 C 97.955 195.262,98.554 196.398,98.686 196.505 C 98.817 196.612,99.059 197.136,99.223 197.670 C 99.388 198.204,99.644 198.728,99.794 198.835 C 100.148 199.089,102.524 204.158,102.524 204.661 C 102.524 204.874,102.699 205.049,102.913 205.049 C 103.126 205.049,103.301 205.298,103.301 205.603 C 103.301 205.908,103.527 206.389,103.803 206.671 C 104.079 206.954,104.549 207.796,104.849 208.544 C 105.148 209.291,105.499 209.990,105.628 210.097 C 105.757 210.204,106.710 212.039,107.745 214.175 C 108.779 216.311,109.752 218.146,109.906 218.252 C 110.060 218.359,110.319 218.872,110.482 219.391 C 110.644 219.911,111.545 221.745,112.485 223.469 C 113.424 225.192,114.470 227.257,114.808 228.058 C 115.147 228.859,115.580 229.515,115.770 229.515 C 115.961 229.515,116.117 229.731,116.117 229.994 C 116.117 230.507,118.083 234.626,118.483 234.951 C 118.615 235.058,118.936 235.801,119.197 236.602 C 119.458 237.403,119.819 238.058,119.999 238.058 C 120.179 238.058,120.441 238.581,120.582 239.219 C 120.722 239.857,120.963 240.457,121.117 240.553 C 121.271 240.648,122.349 242.616,123.512 244.926 C 124.675 247.236,125.716 249.214,125.827 249.320 C 126.229 249.709,128.155 253.811,128.155 254.277 C 128.155 254.541,128.295 254.757,128.466 254.757 C 128.636 254.757,129.011 255.413,129.297 256.214 C 129.584 257.015,129.925 257.757,130.055 257.864 C 130.185 257.971,130.915 259.282,131.678 260.777 C 134.257 265.834,135.299 267.766,135.555 267.961 C 135.695 268.068,136.023 268.811,136.285 269.612 C 136.546 270.413,136.920 271.068,137.117 271.068 C 137.315 271.068,137.476 271.284,137.476 271.548 C 137.476 272.011,139.399 276.110,139.802 276.505 C 139.911 276.612,140.872 278.447,141.939 280.583 C 143.005 282.718,143.985 284.553,144.117 284.660 C 144.249 284.767,144.591 285.510,144.878 286.311 C 145.164 287.112,145.510 287.767,145.647 287.767 C 145.783 287.767,146.126 288.466,146.408 289.320 C 146.690 290.175,147.053 290.874,147.216 290.874 C 147.378 290.874,147.624 291.386,147.761 292.012 C 147.899 292.638,148.245 293.344,148.531 293.581 C 148.816 293.818,149.168 294.484,149.313 295.061 C 149.458 295.637,149.701 296.198,149.854 296.307 C 150.007 296.416,150.998 298.252,152.056 300.388 C 153.115 302.524,154.102 304.327,154.250 304.394 C 154.398 304.461,154.729 305.160,154.986 305.947 C 155.242 306.735,155.558 307.466,155.687 307.573 C 155.817 307.680,157.141 310.214,158.630 313.204 C 160.120 316.194,161.451 318.728,161.588 318.835 C 161.725 318.942,162.327 320.078,162.926 321.359 C 163.525 322.641,164.161 323.748,164.338 323.819 C 164.515 323.890,164.660 324.150,164.660 324.396 C 164.660 324.885,166.641 329.007,167.027 329.320 C 167.159 329.427,167.480 330.170,167.741 330.971 C 168.002 331.772,168.363 332.427,168.543 332.427 C 168.723 332.427,168.983 332.939,169.120 333.565 C 169.258 334.191,169.604 334.898,169.890 335.135 C 170.175 335.372,170.528 336.038,170.672 336.614 C 170.817 337.190,171.059 337.751,171.209 337.860 C 171.360 337.969,172.089 339.282,172.829 340.777 C 173.569 342.272,174.292 343.584,174.435 343.693 C 174.578 343.802,174.816 344.370,174.963 344.955 C 175.110 345.541,175.358 346.019,175.514 346.019 C 175.670 346.019,176.029 346.718,176.311 347.573 C 176.593 348.427,176.942 349.126,177.087 349.126 C 177.233 349.126,177.582 349.825,177.864 350.680 C 178.146 351.534,178.524 352.233,178.703 352.233 C 178.882 352.233,179.029 352.483,179.029 352.788 C 179.029 353.093,179.255 353.574,179.531 353.856 C 179.807 354.138,180.278 354.981,180.577 355.728 C 180.876 356.476,181.218 357.175,181.337 357.282 C 181.456 357.388,183.143 360.621,185.085 364.466 C 190.750 375.680,191.183 376.498,191.522 376.634 C 191.700 376.706,191.845 376.965,191.845 377.211 C 191.845 377.702,193.827 381.824,194.213 382.136 C 194.345 382.243,194.688 382.985,194.975 383.786 C 195.261 384.587,195.617 385.243,195.764 385.243 C 195.912 385.243,196.153 385.722,196.300 386.309 C 197.094 389.472,198.364 389.059,200.473 384.951 C 201.433 383.083,203.249 379.544,204.507 377.087 C 205.766 374.631,206.891 372.534,207.007 372.427 C 207.122 372.320,207.930 370.835,208.801 369.126 C 210.248 366.288,213.681 359.690,215.972 355.340 C 216.479 354.379,216.991 353.505,217.109 353.398 C 217.228 353.291,217.568 352.592,217.864 351.845 C 218.160 351.097,218.501 350.398,218.622 350.291 C 218.742 350.184,219.713 348.350,220.780 346.214 C 221.846 344.078,222.816 342.243,222.935 342.136 C 223.054 342.029,223.393 341.330,223.689 340.583 C 223.985 339.835,224.329 339.136,224.452 339.029 C 224.575 338.922,225.271 337.647,225.998 336.195 C 226.725 334.743,227.451 333.474,227.611 333.375 C 227.771 333.276,228.016 332.673,228.156 332.034 C 228.297 331.396,228.560 330.874,228.743 330.874 C 228.925 330.874,229.197 330.481,229.347 330.000 C 229.497 329.519,229.727 329.039,229.858 328.932 C 229.990 328.825,231.320 326.291,232.816 323.301 C 234.311 320.311,235.641 317.777,235.773 317.670 C 235.904 317.563,236.140 317.065,236.297 316.562 C 236.454 316.059,236.958 315.094,237.418 314.416 C 237.877 313.739,238.597 312.402,239.018 311.447 C 239.440 310.491,239.877 309.621,239.989 309.515 C 240.202 309.313,241.438 306.973,244.808 300.388 C 245.902 298.252,246.883 296.417,246.990 296.311 C 247.097 296.204,247.796 294.893,248.544 293.398 C 249.291 291.903,250.010 290.592,250.142 290.485 C 250.273 290.379,250.515 289.854,250.680 289.320 C 250.844 288.786,251.086 288.262,251.217 288.155 C 251.349 288.049,252.113 286.650,252.917 285.049 C 253.720 283.447,255.444 280.126,256.747 277.670 C 258.051 275.214,259.880 271.718,260.813 269.903 C 261.745 268.087,262.643 266.424,262.807 266.205 C 262.972 265.987,264.330 263.366,265.825 260.380 C 267.320 257.394,268.633 254.864,268.742 254.757 C 268.851 254.650,269.457 253.515,270.089 252.233 C 270.721 250.951,271.364 249.848,271.519 249.781 C 271.674 249.714,272.011 249.015,272.267 248.227 C 272.524 247.440,272.840 246.709,272.969 246.602 C 273.098 246.495,274.078 244.660,275.146 242.524 C 276.214 240.388,277.188 238.553,277.311 238.447 C 277.434 238.340,278.045 237.204,278.670 235.922 C 279.295 234.641,279.903 233.505,280.022 233.398 C 280.141 233.291,280.483 232.592,280.782 231.845 C 281.082 231.097,281.552 230.255,281.828 229.972 C 282.104 229.690,282.330 229.231,282.330 228.952 C 282.330 228.673,282.581 228.236,282.888 227.982 C 283.194 227.727,283.558 227.007,283.695 226.381 C 283.833 225.755,284.093 225.243,284.273 225.243 C 284.453 225.243,284.814 224.587,285.075 223.786 C 285.336 222.985,285.658 222.243,285.791 222.136 C 286.103 221.886,287.990 218.364,290.577 213.204 C 291.701 210.961,292.721 209.039,292.844 208.932 C 292.966 208.825,293.635 207.560,294.330 206.121 C 295.026 204.681,295.742 203.412,295.923 203.301 C 296.103 203.189,296.366 202.576,296.506 201.937 C 296.646 201.299,296.879 200.777,297.023 200.777 C 297.168 200.777,297.520 200.248,297.806 199.603 C 298.092 198.957,299.161 196.890,300.183 195.010 C 301.205 193.129,302.173 191.167,302.335 190.650 C 302.497 190.132,302.746 189.621,302.890 189.515 C 303.033 189.408,303.506 188.621,303.942 187.767 C 304.377 186.913,305.547 184.652,306.542 182.743 C 307.536 180.834,308.350 179.043,308.350 178.762 C 308.350 178.482,308.521 178.252,308.730 178.252 C 308.940 178.252,309.221 177.816,309.355 177.282 C 309.489 176.748,309.743 176.311,309.920 176.311 C 310.096 176.311,310.462 175.699,310.732 174.951 C 311.003 174.204,311.336 173.592,311.472 173.592 C 311.609 173.592,311.951 172.893,312.233 172.039 C 312.515 171.184,312.874 170.485,313.030 170.485 C 313.186 170.485,313.434 170.007,313.581 169.421 C 313.728 168.836,313.971 168.268,314.122 168.159 C 314.273 168.050,315.001 166.738,315.742 165.243 C 316.482 163.748,317.175 162.437,317.282 162.330 C 317.388 162.223,318.350 160.388,319.417 158.252 C 320.485 156.117,321.465 154.282,321.595 154.175 C 321.724 154.068,322.677 152.233,323.712 150.097 C 324.746 147.961,325.689 146.126,325.806 146.019 C 325.923 145.913,326.544 144.777,327.184 143.495 C 327.825 142.214,328.447 141.078,328.566 140.971 C 328.685 140.864,329.024 140.165,329.320 139.417 C 329.617 138.670,329.957 137.971,330.078 137.864 C 330.199 137.757,331.170 135.922,332.236 133.786 C 333.302 131.650,334.282 129.816,334.414 129.709 C 334.545 129.602,335.142 128.466,335.741 127.184 C 336.339 125.903,336.930 124.767,337.055 124.660 C 337.180 124.553,338.155 122.718,339.223 120.583 C 340.291 118.447,341.252 116.612,341.359 116.505 C 341.466 116.398,342.165 115.087,342.913 113.592 C 343.660 112.097,344.389 110.785,344.532 110.676 C 344.676 110.567,344.913 109.999,345.060 109.414 C 345.207 108.828,345.476 108.350,345.658 108.350 C 345.839 108.350,346.198 107.650,346.454 106.796 C 346.710 105.942,347.053 105.243,347.216 105.243 C 347.379 105.243,347.726 104.587,347.987 103.786 C 348.248 102.985,348.604 102.237,348.777 102.124 C 349.232 101.825,352.621 95.096,352.621 94.491 C 352.621 94.210,352.755 93.981,352.919 93.981 C 353.083 93.981,354.088 92.277,355.152 90.194 C 356.217 88.112,357.195 86.320,357.326 86.214 C 357.458 86.107,357.700 85.583,357.864 85.049 C 358.028 84.515,358.279 83.990,358.420 83.883 C 358.561 83.777,359.272 82.466,360.000 80.971 C 360.728 79.476,361.792 77.466,362.366 76.505 C 362.939 75.544,363.537 74.334,363.693 73.816 C 363.850 73.299,364.135 72.687,364.326 72.457 C 364.818 71.865,366.751 68.276,368.420 64.854 C 369.202 63.252,369.944 61.854,370.069 61.748 C 370.195 61.641,371.170 59.806,372.236 57.670 C 373.302 55.534,374.282 53.699,374.414 53.592 C 374.545 53.485,374.787 52.961,374.951 52.427 C 375.116 51.893,375.364 51.369,375.503 51.262 C 375.641 51.155,376.361 49.845,377.101 48.350 C 377.841 46.854,378.536 45.544,378.645 45.437 C 378.754 45.330,379.358 44.194,379.987 42.913 C 380.617 41.631,381.236 40.495,381.365 40.388 C 381.493 40.282,381.841 39.583,382.140 38.835 C 382.438 38.087,383.258 36.485,383.962 35.274 C 384.667 34.064,385.243 32.884,385.243 32.653 C 385.243 32.422,385.390 32.233,385.569 32.233 C 385.748 32.233,386.126 31.534,386.408 30.680 C 386.690 29.825,387.024 29.126,387.150 29.126 C 387.276 29.126,387.903 27.992,388.544 26.607 C 389.184 25.221,389.826 24.086,389.970 24.083 C 390.114 24.080,390.445 23.422,390.706 22.621 C 390.967 21.820,391.286 21.078,391.415 20.971 C 391.545 20.864,392.242 19.641,392.964 18.252 C 393.687 16.864,394.866 14.601,395.586 13.222 C 396.305 11.844,396.893 10.490,396.893 10.213 C 396.893 9.936,397.024 9.708,397.184 9.706 C 397.822 9.702,400.107 4.364,399.865 3.444 C 399.571 2.325,394.683 -0.113,393.108 0.074 C 392.134 0.189,389.493 4.357,387.926 8.252 C 387.690 8.840,387.339 9.320,387.146 9.320 C 386.954 9.320,386.796 9.547,386.796 9.824 C 386.796 10.101,386.202 11.488,385.476 12.906 C 384.750 14.323,384.255 15.582,384.376 15.703 C 384.497 15.824,384.420 15.922,384.206 15.922 C 383.992 15.922,382.958 17.626,381.909 19.709 C 380.859 21.791,379.911 23.583,379.803 23.689 C 379.694 23.796,378.733 25.631,377.667 27.767 C 376.601 29.903,375.639 31.738,375.530 31.845 C 375.127 32.239,373.204 36.338,373.204 36.802 C 373.204 37.066,373.050 37.282,372.862 37.282 C 372.674 37.282,372.020 38.286,371.409 39.515 C 370.799 40.743,370.191 41.835,370.059 41.942 C 369.926 42.049,369.584 42.791,369.297 43.592 C 369.011 44.393,368.664 45.049,368.528 45.049 C 368.391 45.049,368.049 45.748,367.767 46.602 C 367.485 47.456,367.151 48.156,367.025 48.156 C 366.899 48.157,366.272 49.249,365.631 50.583 C 364.990 51.918,364.345 53.065,364.197 53.132 C 364.048 53.199,363.717 53.898,363.461 54.685 C 363.204 55.472,362.885 56.204,362.751 56.311 C 362.618 56.417,361.914 57.693,361.187 59.145 C 360.459 60.597,359.734 61.866,359.574 61.965 C 359.414 62.064,359.168 62.667,359.028 63.305 C 358.888 63.944,358.656 64.466,358.513 64.467 C 358.370 64.467,357.729 65.560,357.089 66.894 C 356.450 68.229,355.828 69.408,355.708 69.515 C 355.588 69.621,355.260 70.277,354.979 70.971 C 354.699 71.665,354.329 72.233,354.158 72.233 C 353.988 72.233,353.736 72.745,353.598 73.371 C 353.461 73.997,353.108 74.708,352.816 74.951 C 352.523 75.195,352.170 75.906,352.033 76.532 C 351.895 77.158,351.622 77.670,351.425 77.670 C 351.229 77.670,351.068 77.871,351.068 78.116 C 351.068 78.362,350.368 79.777,349.513 81.261 C 348.657 82.745,347.852 84.379,347.723 84.892 C 347.594 85.405,347.350 85.825,347.180 85.825 C 347.011 85.825,346.689 86.350,346.466 86.990 L 346.060 88.155 312.066 88.155 L 278.073 88.155 277.829 89.126 C 277.695 89.660,277.437 90.097,277.255 90.097 C 277.073 90.097,276.715 90.796,276.459 91.650 C 276.203 92.505,275.860 93.204,275.697 93.204 C 275.534 93.204,275.186 93.859,274.925 94.660 C 274.664 95.461,274.343 96.204,274.212 96.311 C 273.812 96.636,271.845 100.755,271.845 101.268 C 271.845 101.532,271.677 101.748,271.472 101.748 C 271.267 101.748,270.890 102.447,270.634 103.301 C 270.378 104.155,270.021 104.854,269.841 104.854 C 269.662 104.854,269.515 105.055,269.515 105.301 C 269.515 105.892,267.460 110.061,267.087 110.227 C 266.927 110.298,266.796 110.516,266.796 110.711 C 266.796 111.291,264.362 116.300,264.012 116.440 C 263.834 116.511,263.689 116.736,263.689 116.939 C 263.689 117.143,262.903 118.948,261.942 120.950 C 260.981 122.953,260.194 124.869,260.194 125.208 C 260.194 125.548,260.059 125.825,259.894 125.825 C 259.568 125.825,259.578 125.807,255.683 133.786 C 254.223 136.777,252.893 139.282,252.728 139.353 C 252.562 139.424,252.426 139.686,252.425 139.935 C 252.424 140.184,251.288 142.658,249.901 145.432 C 248.514 148.206,247.379 150.681,247.379 150.933 C 247.379 151.185,247.248 151.450,247.087 151.521 C 246.927 151.592,246.040 153.223,245.115 155.146 C 244.191 157.068,242.749 160.039,241.911 161.748 C 241.074 163.457,240.388 165.074,240.388 165.340 C 240.388 165.607,240.227 165.825,240.030 165.825 C 239.833 165.825,239.458 166.481,239.197 167.282 C 238.936 168.083,238.615 168.825,238.483 168.932 C 238.083 169.257,236.117 173.376,236.117 173.889 C 236.117 174.153,235.955 174.369,235.758 174.369 C 235.561 174.369,235.186 175.024,234.925 175.825 C 234.664 176.626,234.345 177.369,234.216 177.476 C 234.086 177.583,233.605 178.456,233.146 179.417 C 232.686 180.379,230.999 183.815,229.396 187.055 C 227.793 190.294,226.354 193.344,226.199 193.833 C 226.044 194.321,225.678 194.960,225.386 195.252 C 225.093 195.545,224.854 196.110,224.854 196.510 C 224.854 196.909,224.691 197.337,224.490 197.461 C 224.078 197.715,221.748 202.514,221.748 203.108 C 221.748 203.321,221.573 203.495,221.359 203.495 C 221.146 203.495,220.971 203.702,220.971 203.956 C 220.971 204.485,215.883 214.850,215.477 215.150 C 215.328 215.258,215.087 215.826,214.940 216.412 C 214.793 216.997,214.545 217.476,214.388 217.476 C 214.232 217.476,213.894 218.175,213.638 219.029 C 213.382 219.883,213.005 220.583,212.800 220.583 C 212.595 220.583,212.427 220.784,212.427 221.029 C 212.427 221.442,211.026 224.480,207.438 231.845 C 206.658 233.447,205.888 234.816,205.728 234.887 C 205.568 234.958,205.436 235.220,205.435 235.469 C 205.435 235.718,204.911 236.971,204.272 238.252 C 203.633 239.534,203.109 240.786,203.108 241.036 C 203.107 241.285,202.961 241.547,202.783 241.618 C 202.403 241.770,198.835 248.982,198.835 249.597 C 198.835 249.826,198.573 250.115,198.252 250.238 C 197.898 250.374,197.670 250.238,197.670 249.891 C 197.670 249.577,197.523 249.320,197.344 249.320 C 197.164 249.320,196.787 248.621,196.505 247.767 C 196.223 246.913,195.845 246.214,195.666 246.214 C 195.487 246.214,195.340 245.942,195.340 245.610 C 195.340 245.277,194.741 243.877,194.009 242.498 C 193.277 241.119,192.477 239.381,192.231 238.636 C 191.986 237.891,191.623 237.282,191.426 237.282 C 191.229 237.282,191.068 237.066,191.068 236.802 C 191.068 236.287,189.100 232.168,188.699 231.845 C 188.567 231.738,188.224 230.995,187.938 230.194 C 187.651 229.393,187.277 228.738,187.106 228.738 C 186.936 228.738,186.796 228.528,186.796 228.272 C 186.796 227.817,186.228 226.618,179.268 212.378 C 177.428 208.613,175.922 205.336,175.922 205.096 C 175.922 204.856,175.761 204.660,175.565 204.660 C 175.368 204.660,175.092 204.136,174.951 203.495 C 174.811 202.854,174.546 202.330,174.364 202.330 C 174.182 202.330,173.916 201.937,173.772 201.456 C 173.629 200.976,171.869 197.229,169.862 193.129 C 167.856 189.030,166.214 185.491,166.214 185.265 C 166.214 185.039,166.067 184.854,165.887 184.854 C 165.708 184.854,165.331 184.155,165.049 183.301 C 164.767 182.447,164.403 181.748,164.241 181.748 C 164.078 181.748,163.833 181.235,163.695 180.609 C 163.558 179.983,163.206 179.272,162.913 179.029 C 162.620 178.786,162.268 178.075,162.130 177.449 C 161.993 176.823,161.719 176.311,161.523 176.311 C 161.326 176.311,161.165 176.081,161.165 175.801 C 161.165 175.520,160.383 173.729,159.426 171.820 C 158.470 169.911,157.684 168.131,157.679 167.864 C 157.674 167.597,157.523 167.379,157.343 167.379 C 157.163 167.379,156.807 166.680,156.551 165.825 C 156.295 164.971,155.918 164.272,155.713 164.272 C 155.508 164.272,155.340 164.056,155.340 163.792 C 155.340 163.182,153.301 159.072,152.913 158.900 C 152.752 158.828,152.621 158.566,152.620 158.317 C 152.619 158.068,152.095 156.816,151.456 155.534 C 150.817 154.252,150.294 153.000,150.293 152.751 C 150.292 152.502,150.160 152.239,150.000 152.168 C 149.840 152.097,149.422 151.427,149.072 150.680 C 148.721 149.932,147.280 146.951,145.868 144.055 C 144.456 141.159,143.301 138.596,143.301 138.359 C 143.301 138.123,143.170 137.871,143.010 137.799 C 142.647 137.638,140.194 132.648,140.194 132.072 C 140.194 131.840,140.019 131.650,139.806 131.650 C 139.592 131.650,139.417 131.462,139.417 131.231 C 139.417 131.001,138.369 128.656,137.087 126.019 C 135.806 123.383,134.757 121.038,134.757 120.807 C 134.757 120.577,134.610 120.388,134.431 120.388 C 134.252 120.388,133.874 119.689,133.592 118.835 C 133.310 117.981,132.933 117.282,132.753 117.282 C 132.574 117.282,132.427 117.066,132.427 116.802 C 132.427 116.289,130.460 112.170,130.060 111.845 C 129.929 111.738,129.608 110.995,129.347 110.194 C 129.085 109.393,128.711 108.738,128.514 108.738 C 128.317 108.738,128.155 108.526,128.155 108.268 C 128.155 107.751,126.480 104.184,121.748 94.625 L 118.641 88.350 86.087 88.250 C 60.251 88.171,53.438 88.048,53.077 87.654 C 52.826 87.381,51.398 84.717,49.903 81.734 C 48.408 78.751,47.095 76.223,46.986 76.117 C 46.599 75.737,44.660 71.632,44.660 71.192 C 44.660 70.946,44.529 70.686,44.369 70.615 C 44.209 70.544,43.553 69.394,42.913 68.059 C 42.272 66.725,41.644 65.632,41.518 65.632 C 41.392 65.631,41.059 64.932,40.777 64.078 C 40.495 63.223,40.124 62.524,39.953 62.524 C 39.783 62.524,39.433 61.825,39.177 60.971 C 38.921 60.117,38.584 59.417,38.427 59.417 C 38.271 59.417,38.033 58.981,37.899 58.447 C 37.765 57.913,37.484 57.476,37.274 57.476 C 37.065 57.476,36.894 57.257,36.894 56.990 C 36.895 56.481,33.378 49.268,32.965 48.932 C 32.834 48.825,32.594 48.301,32.434 47.767 C 32.273 47.233,31.928 46.534,31.669 46.214 C 31.409 45.893,30.971 45.063,30.696 44.369 C 30.422 43.675,30.057 43.107,29.887 43.107 C 29.716 43.107,29.461 42.583,29.320 41.942 C 29.180 41.301,28.932 40.777,28.769 40.777 C 28.607 40.777,28.243 40.078,27.961 39.223 C 27.679 38.369,27.329 37.670,27.184 37.670 C 27.038 37.670,26.710 36.971,26.454 36.117 C 26.198 35.262,25.839 34.563,25.658 34.563 C 25.476 34.563,25.214 34.111,25.075 33.559 C 24.936 33.007,24.652 32.351,24.444 32.103 C 24.236 31.854,23.046 29.641,21.800 27.184 C 20.554 24.728,19.071 21.862,18.505 20.816 C 17.939 19.770,17.476 18.692,17.476 18.421 C 17.476 18.150,17.345 17.871,17.184 17.799 C 17.024 17.728,15.962 15.835,14.825 13.592 C 7.053 -1.730,7.746 -0.998,3.107 1.222 " stroke="none" fill="#048cbc" fill-rule="evenodd"></path><path id="path1" d="M89.310 0.664 C 88.782 1.029,88.145 1.509,87.895 1.732 C 87.645 1.954,86.986 2.485,86.429 2.913 C 85.873 3.340,85.203 3.864,84.942 4.078 C 84.680 4.291,83.767 4.984,82.913 5.617 C 82.058 6.250,81.145 6.949,80.884 7.170 C 80.622 7.392,80.010 7.873,79.524 8.239 C 79.038 8.605,77.648 9.697,76.434 10.666 C 75.220 11.635,74.130 12.427,74.011 12.427 C 73.892 12.427,73.487 12.679,73.111 12.986 C 70.563 15.066,68.927 16.330,66.845 17.823 C 65.537 18.761,64.466 19.679,64.466 19.862 C 64.466 20.044,64.219 20.194,63.916 20.194 C 63.406 20.194,62.338 20.962,60.542 22.621 C 60.137 22.995,59.657 23.301,59.474 23.301 C 59.175 23.301,57.938 24.280,56.278 25.833 C 55.940 26.149,55.527 26.408,55.361 26.408 C 55.195 26.408,54.224 27.107,53.204 27.961 C 52.183 28.816,51.169 29.515,50.949 29.515 C 50.730 29.515,50.492 29.646,50.421 29.806 C 50.350 29.966,49.243 30.877,47.961 31.831 C 46.680 32.785,45.332 33.833,44.967 34.161 C 44.601 34.489,43.902 35.063,43.413 35.437 C 39.056 38.767,37.837 39.723,37.670 39.941 C 37.481 40.187,37.066 40.470,34.857 41.856 C 34.271 42.223,33.790 42.830,33.789 43.204 C 33.787 43.846,35.838 43.883,71.456 43.883 C 108.867 43.883,109.126 43.878,109.126 43.107 C 109.126 42.680,108.971 42.330,108.781 42.330 C 108.591 42.330,108.313 41.675,108.163 40.874 C 108.013 40.073,107.557 38.684,107.149 37.788 C 106.741 36.892,106.402 36.018,106.395 35.847 C 106.387 35.675,106.044 34.835,105.631 33.981 C 105.218 33.126,104.875 32.136,104.868 31.780 C 104.860 31.424,104.694 31.074,104.498 31.003 C 104.303 30.932,104.025 30.237,103.880 29.458 L 103.618 28.041 105.304 27.763 C 106.232 27.610,107.165 27.350,107.379 27.186 C 107.592 27.021,109.034 26.663,110.583 26.391 C 112.131 26.118,113.398 25.772,113.398 25.622 C 113.398 25.472,114.391 25.233,115.605 25.090 C 116.820 24.948,117.999 24.682,118.227 24.500 C 118.455 24.318,120.214 23.954,122.136 23.689 C 124.058 23.425,125.806 23.080,126.019 22.922 C 126.233 22.765,128.330 22.411,130.680 22.136 C 133.029 21.861,135.126 21.508,135.340 21.352 C 135.553 21.196,138.087 20.846,140.971 20.573 C 143.854 20.301,146.388 19.945,146.602 19.782 C 146.816 19.618,149.087 19.358,151.650 19.203 C 154.214 19.048,156.398 18.792,156.505 18.633 C 156.716 18.320,171.080 17.473,176.136 17.475 C 177.855 17.475,179.440 17.298,179.658 17.080 C 180.068 16.670,214.019 16.797,218.252 17.224 C 219.427 17.343,224.670 17.645,229.903 17.895 C 235.136 18.146,239.592 18.460,239.806 18.593 C 240.019 18.726,242.291 19.047,244.854 19.307 C 251.669 19.998,260.688 21.168,261.359 21.449 C 261.680 21.583,263.777 21.901,266.019 22.156 C 268.262 22.410,270.272 22.751,270.485 22.912 C 270.699 23.074,272.665 23.430,274.854 23.705 C 277.044 23.979,278.835 24.341,278.835 24.510 C 278.835 24.678,279.883 24.934,281.165 25.079 C 282.447 25.224,283.495 25.464,283.495 25.611 C 283.495 25.759,284.896 26.107,286.608 26.385 C 288.320 26.663,289.801 27.020,289.899 27.178 C 289.997 27.336,291.386 27.698,292.987 27.982 C 294.622 28.273,295.983 28.724,296.093 29.011 C 296.351 29.682,295.913 31.845,295.520 31.845 C 295.351 31.845,295.096 32.544,294.951 33.398 C 294.807 34.252,294.558 34.951,294.397 34.951 C 294.236 34.951,293.874 35.913,293.592 37.087 C 293.310 38.262,292.969 39.223,292.834 39.223 C 292.565 39.223,291.650 42.379,291.650 43.307 C 291.650 43.802,293.050 43.883,301.530 43.883 C 306.964 43.883,311.501 44.030,311.612 44.209 C 311.722 44.388,320.427 44.652,330.955 44.796 C 341.483 44.940,353.723 45.171,358.155 45.309 C 366.024 45.554,366.214 45.541,366.214 44.787 C 366.214 44.341,365.768 43.782,365.157 43.464 C 364.577 43.161,363.821 42.650,363.479 42.330 C 363.137 42.010,362.190 41.223,361.374 40.583 C 360.558 39.942,359.604 39.155,359.253 38.835 C 358.902 38.515,357.922 37.733,357.075 37.099 C 356.227 36.465,355.359 35.814,355.146 35.654 C 354.932 35.493,354.283 34.964,353.703 34.477 C 353.123 33.990,351.593 32.810,350.305 31.854 C 349.016 30.898,347.961 29.980,347.961 29.815 C 347.961 29.650,347.768 29.515,347.532 29.515 C 347.296 29.515,346.553 29.070,345.881 28.527 C 345.210 27.984,344.269 27.241,343.790 26.877 C 343.312 26.512,342.438 25.815,341.849 25.329 C 340.674 24.359,340.685 24.367,338.447 22.709 C 337.592 22.076,336.753 21.339,336.583 21.070 C 336.412 20.802,336.057 20.583,335.795 20.583 C 335.533 20.583,335.030 20.277,334.677 19.903 C 333.917 19.098,333.590 18.838,331.165 17.107 C 330.150 16.383,329.320 15.646,329.320 15.468 C 329.320 15.291,329.053 15.146,328.726 15.146 C 328.399 15.146,328.033 14.890,327.913 14.578 C 327.793 14.266,327.381 13.911,326.998 13.789 C 326.614 13.667,325.865 13.180,325.334 12.706 C 324.802 12.232,323.795 11.408,323.095 10.874 C 322.396 10.340,321.300 9.422,320.660 8.835 C 320.020 8.248,319.373 7.767,319.222 7.767 C 319.072 7.767,318.508 7.374,317.970 6.893 C 315.812 4.965,314.404 3.826,313.740 3.470 C 313.356 3.265,312.379 2.483,311.570 1.734 C 309.205 -0.455,307.288 -0.603,306.713 1.359 C 306.525 2.000,306.127 3.049,305.828 3.689 C 305.529 4.330,305.110 5.466,304.899 6.214 C 302.699 13.978,300.648 16.420,298.058 14.359 C 297.845 14.189,296.534 13.821,295.146 13.542 C 293.757 13.264,292.526 12.902,292.409 12.738 C 292.292 12.575,290.850 12.232,289.205 11.976 C 287.560 11.720,286.214 11.390,286.214 11.243 C 286.214 11.095,285.310 10.854,284.205 10.707 C 283.100 10.561,281.900 10.282,281.538 10.089 C 281.176 9.895,279.284 9.524,277.333 9.264 C 275.382 9.005,273.786 8.675,273.786 8.531 C 273.786 8.388,271.908 8.044,269.612 7.769 C 267.316 7.493,265.262 7.137,265.049 6.978 C 264.835 6.818,263.175 6.562,261.359 6.408 C 259.544 6.254,257.883 5.988,257.670 5.817 C 257.456 5.646,254.485 5.287,251.068 5.018 C 247.650 4.750,244.766 4.400,244.657 4.240 C 244.549 4.080,240.268 3.743,235.143 3.492 C 229.862 3.234,225.421 2.841,224.893 2.586 C 223.565 1.945,173.718 1.945,172.389 2.585 C 171.865 2.838,167.491 3.230,162.399 3.480 C 157.418 3.725,152.962 4.076,152.496 4.259 C 152.031 4.442,148.942 4.799,145.631 5.051 C 142.320 5.304,139.437 5.650,139.223 5.819 C 139.010 5.989,137.218 6.253,135.243 6.406 C 133.267 6.559,131.650 6.808,131.650 6.959 C 131.650 7.109,129.553 7.466,126.990 7.751 C 124.427 8.036,122.330 8.381,122.330 8.517 C 122.330 8.654,120.626 8.993,118.544 9.272 C 116.461 9.551,114.581 9.925,114.365 10.102 C 114.149 10.280,112.882 10.549,111.550 10.700 C 110.217 10.851,109.126 11.092,109.126 11.237 C 109.126 11.381,107.772 11.725,106.117 12.001 C 104.461 12.278,102.932 12.639,102.718 12.803 C 102.505 12.968,101.631 13.222,100.777 13.368 C 99.922 13.514,98.929 13.720,98.570 13.825 C 97.757 14.063,96.518 11.501,95.030 6.505 C 94.792 5.704,94.472 5.049,94.320 5.049 C 94.167 5.049,93.923 4.481,93.776 3.786 C 93.013 0.162,91.532 -0.873,89.310 0.664 " stroke="none" fill="#fc6c2c" fill-rule="evenodd"></path><path id="path2" d="" stroke="none" fill="#4080c0" fill-rule="evenodd"></path><path id="path3" d="" stroke="none" fill="#4080c0" fill-rule="evenodd"></path><path id="path4" d="" stroke="none" fill="#4080c0" fill-rule="evenodd"></path><path id="path5" d="" stroke="none" fill="#4080c0" fill-rule="evenodd"></path><path id="path6" d="" stroke="none" fill="#4080c0" fill-rule="evenodd"></path><path id="path7" d="" stroke="none" fill="#4080c0" fill-rule="evenodd"></path><path id="path8" d="" stroke="none" fill="#4080c0" fill-rule="evenodd"></path></g></svg>