<svg id="svg" version="1.1" xmlns="http://www.w3.org/2000/svg" xmlns:xlink="http://www.w3.org/1999/xlink" width="400" height="400" viewBox="0, 0, 400,400"><g id="svgg"><path id="path0" d="M0.000 200.000 L 0.000 400.000 200.000 400.000 L 400.000 400.000 400.000 200.000 L 400.000 0.000 200.000 0.000 L 0.000 0.000 0.000 200.000 M244.691 5.185 L 395.186 5.185 395.093 200.093 L 395.000 395.000 200.093 395.093 L 5.185 395.186 5.185 199.939 L 5.185 4.692 49.691 4.939 C 74.169 5.074,161.919 5.185,244.691 5.185 M190.370 36.491 C 143.488 42.332,108.229 73.910,97.418 119.739 C 95.854 126.366,94.272 140.750,95.167 140.196 C 95.303 140.112,95.454 139.242,95.502 138.262 C 96.484 118.209,106.820 93.802,120.410 79.444 C 121.374 78.426,122.512 77.146,122.939 76.601 C 123.831 75.462,130.517 69.574,134.074 66.795 C 140.856 61.498,152.935 54.544,159.444 52.191 C 160.463 51.823,162.026 51.256,162.919 50.931 C 181.880 44.029,207.841 44.387,228.082 51.830 C 252.659 60.866,274.327 84.501,282.599 111.296 C 283.039 112.722,283.700 114.806,284.069 115.926 C 291.556 138.708,288.990 170.284,277.762 193.529 C 266.426 216.997,244.522 235.730,221.208 241.896 C 218.812 242.529,216.606 243.121,216.305 243.211 C 215.933 243.322,216.170 243.623,217.046 244.152 C 217.754 244.579,218.708 245.157,219.167 245.436 C 220.828 246.447,219.615 247.139,215.000 247.814 C 200.425 249.947,173.360 247.403,178.927 244.424 C 179.508 244.113,181.235 244.124,185.686 244.466 C 195.414 245.213,213.333 244.251,213.333 242.982 C 213.333 242.678,201.751 236.346,199.449 235.391 L 197.971 234.779 195.189 236.196 C 193.659 236.976,189.741 239.005,186.481 240.705 L 180.556 243.796 177.407 243.592 C 172.501 243.274,161.497 240.011,154.510 236.801 C 150.955 235.169,150.613 235.239,153.889 236.930 C 159.591 239.873,168.591 243.366,173.796 244.656 C 177.788 245.645,177.581 245.846,166.389 251.846 C 160.940 254.768,154.815 258.089,152.778 259.227 L 149.074 261.296 173.611 261.392 C 187.106 261.444,209.170 261.444,222.641 261.392 L 247.133 261.296 243.844 259.472 C 242.036 258.469,236.401 255.380,231.323 252.609 C 226.246 249.837,222.023 247.364,221.939 247.113 C 221.748 246.541,223.544 245.778,226.874 245.016 C 277.754 233.370,313.453 181.780,306.720 129.630 C 299.197 71.353,246.855 29.453,190.370 36.491 M221.296 122.058 C 188.658 124.518,159.300 131.057,130.185 142.351 C 116.441 147.683,99.210 156.398,92.470 161.426 C 90.381 162.984,87.157 165.379,85.306 166.747 C 61.221 184.548,58.001 206.002,77.778 216.916 C 94.901 226.366,132.973 224.568,169.259 212.597 C 184.845 207.455,183.524 207.600,186.843 210.664 C 200.227 223.023,218.912 204.068,206.464 190.760 C 202.131 186.128,195.191 185.143,189.724 188.384 C 185.001 191.183,182.996 194.977,182.381 202.278 L 182.142 205.112 179.867 205.864 C 177.049 206.796,170.193 208.611,164.074 210.046 C 118.714 220.684,90.159 214.063,86.887 192.149 C 84.579 176.690,113.645 154.746,155.556 140.304 C 179.789 131.954,202.024 126.500,229.815 122.088 L 233.148 121.559 230.370 121.571 C 228.843 121.578,224.759 121.797,221.296 122.058 M270.556 122.258 C 268.519 122.647,263.685 123.540,259.815 124.242 C 247.015 126.564,240.587 127.769,237.963 128.337 C 236.537 128.646,231.537 129.658,226.852 130.586 C 187.809 138.319,149.137 150.096,126.481 161.152 C 96.154 175.951,89.892 190.548,107.054 206.438 C 110.216 209.365,111.160 209.819,109.723 207.721 C 99.528 192.839,110.486 178.179,142.778 163.501 C 149.433 160.476,153.532 158.783,163.333 155.013 C 167.747 153.315,179.512 149.292,186.111 147.224 C 196.599 143.937,195.984 144.120,213.056 139.229 C 224.048 136.079,225.874 135.566,230.741 134.258 C 233.491 133.519,237.741 132.355,240.185 131.670 C 242.630 130.986,246.880 129.820,249.630 129.080 C 252.380 128.339,255.796 127.388,257.222 126.967 C 258.648 126.546,261.815 125.660,264.259 124.998 C 277.413 121.437,279.412 120.568,270.556 122.258 M207.407 195.922 C 207.407 196.720,203.518 199.060,195.741 202.944 C 184.760 208.428,182.963 208.817,182.963 205.712 C 182.963 204.733,183.107 204.669,197.407 199.279 C 200.157 198.242,203.407 196.989,204.630 196.494 C 207.168 195.466,207.407 195.417,207.407 195.922 M34.444 277.963 L 34.444 280.370 200.000 280.370 L 365.556 280.370 365.556 277.963 L 365.556 275.556 200.000 275.556 L 34.444 275.556 34.444 277.963 M312.846 298.072 C 312.228 298.756,311.349 298.793,292.010 298.965 C 271.937 299.143,269.829 299.288,271.812 300.349 C 272.591 300.766,272.593 300.798,272.593 321.278 L 272.593 341.790 271.574 342.550 L 270.556 343.310 277.199 343.322 L 283.842 343.333 282.867 342.315 L 281.891 341.296 281.874 332.685 L 281.857 324.074 291.742 324.074 L 301.626 324.074 302.665 325.069 L 303.704 326.065 303.700 322.569 C 303.695 316.808,303.390 315.033,302.576 316.038 C 301.929 316.839,301.762 316.852,292.163 316.852 L 282.407 316.852 282.130 312.417 C 281.722 305.885,280.192 306.459,297.687 306.582 L 312.014 306.683 313.044 307.670 L 314.074 308.657 314.048 303.680 C 314.018 297.884,313.826 296.990,312.846 298.072 M334.259 298.695 C 308.332 303.499,307.205 337.643,332.778 343.572 C 353.326 348.337,370.259 332.540,364.400 314.074 C 360.957 303.226,347.332 296.273,334.259 298.695 M50.370 298.864 C 36.842 301.362,30.568 313.917,39.097 321.424 C 41.850 323.847,44.846 324.586,55.926 325.571 C 67.563 326.606,71.753 329.202,68.339 333.259 C 63.546 338.955,42.759 337.500,39.921 331.270 C 39.379 330.082,39.109 330.340,37.592 333.494 C 34.980 338.926,34.510 341.032,36.071 340.321 C 36.702 340.034,37.718 340.238,40.632 341.241 C 60.844 348.195,78.579 342.773,78.660 329.615 C 78.710 321.323,73.542 318.171,56.511 316.111 C 48.557 315.149,45.097 313.988,44.749 312.165 C 43.094 303.511,67.042 303.783,72.187 312.478 C 72.736 313.406,73.480 312.409,75.901 307.503 C 78.122 303.002,78.130 302.952,76.547 303.209 C 75.674 303.351,74.514 303.080,72.565 302.278 C 64.926 299.137,56.181 297.792,50.370 298.864 M84.080 299.167 C 84.084 299.319,84.475 299.812,84.949 300.262 L 85.811 301.079 86.032 314.891 C 86.368 335.858,86.965 338.062,93.204 341.384 C 100.501 345.269,115.870 345.420,123.519 341.681 C 130.574 338.233,131.471 334.802,131.478 311.249 C 131.481 300.860,131.484 300.830,132.315 300.271 C 133.722 299.325,132.826 299.145,126.516 299.109 C 119.870 299.071,119.431 299.176,120.915 300.452 L 121.915 301.312 121.593 316.316 C 121.277 331.063,121.257 331.344,120.417 332.702 C 116.219 339.494,100.215 339.134,96.642 332.167 C 96.004 330.923,95.940 329.628,95.845 315.996 L 95.741 301.178 96.587 300.273 L 97.434 299.369 94.921 299.131 C 91.453 298.804,84.073 298.828,84.080 299.167 M145.185 299.127 C 141.176 299.313,140.895 299.413,141.810 300.329 C 143.299 301.818,143.537 341.357,142.064 342.434 C 140.833 343.333,141.736 343.515,148.086 343.646 L 154.259 343.774 153.241 342.700 L 152.222 341.626 152.222 333.450 L 152.222 325.274 162.870 325.069 C 179.873 324.743,183.594 323.238,185.820 315.786 C 188.074 308.239,183.604 301.647,174.994 299.818 C 172.377 299.262,152.314 298.797,145.185 299.127 M192.376 299.946 L 193.456 301.095 193.403 321.566 C 193.351 341.670,193.337 342.046,192.601 342.545 C 191.130 343.543,191.937 343.704,198.403 343.704 L 204.953 343.704 203.958 342.665 L 202.963 341.626 202.963 321.396 L 202.963 301.165 203.945 300.392 C 205.388 299.257,205.096 299.189,197.888 298.984 L 191.296 298.797 192.376 299.946 M215.093 299.139 C 212.704 299.315,212.567 299.499,213.889 300.741 L 214.815 301.611 214.815 321.531 L 214.815 341.452 213.800 342.392 L 212.785 343.333 218.686 343.333 C 223.868 343.333,224.499 343.269,223.867 342.808 C 222.777 342.013,222.253 313.704,223.328 313.704 C 223.612 313.704,237.864 328.081,245.112 335.679 C 249.864 340.660,250.475 341.599,249.562 342.512 C 248.863 343.211,249.088 343.244,256.296 343.523 L 263.148 343.788 262.130 342.707 L 261.111 341.626 261.111 321.481 L 261.111 301.337 262.074 300.332 L 263.037 299.326 260.685 299.084 C 259.392 298.951,256.621 298.894,254.529 298.958 L 250.725 299.074 251.870 300.462 L 253.016 301.850 252.897 314.426 C 252.813 323.327,252.652 327.126,252.348 327.430 C 251.892 327.886,248.990 325.107,236.852 312.591 C 226.757 302.181,226.031 301.228,227.435 300.245 C 227.857 299.949,228.062 299.620,227.889 299.513 C 227.444 299.238,217.638 298.951,215.093 299.139 M344.259 305.998 C 354.230 308.111,359.465 318.869,354.983 328.032 C 349.259 339.730,330.064 339.389,324.552 327.493 C 318.871 315.233,330.091 302.996,344.259 305.998 M165.679 306.303 C 173.003 306.770,174.216 307.041,175.782 308.558 C 179.075 311.750,177.177 316.144,172.037 317.228 C 166.291 318.440,156.257 318.797,153.002 317.906 L 152.114 317.663 152.328 312.110 C 152.481 308.106,152.677 306.471,153.030 306.247 C 153.690 305.829,158.586 305.850,165.679 306.303 M32.593 364.074 L 32.593 366.296 200.389 366.296 L 368.185 366.296 368.074 364.167 L 367.963 362.037 200.278 361.944 L 32.593 361.851 32.593 364.074 " stroke="none" fill="#3e2e94" fill-rule="evenodd"></path><path id="path1" d="M5.340 199.907 L 5.340 394.630 200.021 394.630 L 394.701 394.630 394.917 379.259 C 395.036 370.806,395.035 283.291,394.914 184.784 L 394.696 5.678 304.694 5.432 C 255.193 5.296,167.588 5.185,110.016 5.185 L 5.341 5.185 5.340 199.907 M217.245 36.486 C 262.509 43.199,299.494 79.882,306.302 124.815 C 307.627 133.566,307.794 135.585,307.797 142.963 C 307.801 150.021,307.684 151.479,306.504 159.074 C 299.988 201.005,269.124 234.535,227.037 245.405 C 221.033 246.956,220.874 246.488,228.889 250.849 C 232.046 252.566,237.566 255.578,241.155 257.541 C 244.744 259.505,247.869 261.111,248.100 261.111 C 249.007 261.111,248.452 261.773,247.361 261.991 C 243.808 262.701,148.367 262.122,148.610 261.392 C 148.673 261.204,151.719 259.427,155.380 257.443 C 159.042 255.458,162.622 253.497,163.337 253.085 C 164.975 252.140,170.604 249.111,173.498 247.618 C 176.584 246.025,176.498 245.899,171.206 244.300 C 168.607 243.514,165.981 242.650,165.370 242.380 C 164.759 242.109,162.926 241.366,161.296 240.728 C 157.895 239.397,149.458 235.228,147.573 233.947 C 145.298 232.402,146.616 232.641,150.295 234.442 C 157.671 238.054,166.346 241.120,173.333 242.584 C 179.657 243.910,179.972 243.833,189.805 238.550 C 198.854 233.689,197.319 233.811,204.275 237.400 C 209.087 239.881,213.015 242.073,214.049 242.854 C 216.085 244.390,192.779 245.983,185.000 244.840 C 180.448 244.171,177.365 244.534,178.889 245.559 C 182.111 247.726,201.403 248.872,212.963 247.583 C 220.224 246.774,220.343 246.699,217.393 244.805 C 214.998 243.269,215.155 242.961,218.727 242.191 C 234.426 238.806,256.472 224.570,265.775 211.809 C 266.164 211.277,267.401 209.610,268.525 208.106 C 275.477 198.803,281.254 186.658,284.274 174.998 C 286.171 167.671,286.290 166.937,287.800 153.148 C 288.484 146.903,287.198 129.835,285.553 123.333 C 285.372 122.620,284.812 120.370,284.307 118.333 C 277.609 91.280,258.617 66.685,235.921 55.669 C 232.612 54.063,225.493 51.111,224.929 51.111 C 224.748 51.111,223.106 50.629,221.281 50.041 C 205.445 44.933,181.737 45.210,165.000 50.698 C 139.574 59.035,117.866 77.582,106.165 100.967 C 104.320 104.652,100.739 113.241,100.742 113.973 C 100.742 114.131,100.246 115.843,99.640 117.778 C 98.686 120.818,97.614 125.884,96.269 133.704 C 96.076 134.824,95.844 137.536,95.753 139.731 C 95.588 143.730,95.442 144.444,94.793 144.444 C 93.373 144.444,96.263 118.306,97.993 115.507 C 98.097 115.339,98.692 113.489,99.315 111.397 C 99.939 109.304,100.569 107.426,100.717 107.222 C 100.865 107.019,101.370 105.769,101.839 104.444 C 105.519 94.064,115.021 78.439,122.563 70.370 C 123.229 69.657,124.694 67.949,125.818 66.574 C 126.942 65.199,128.003 64.074,128.176 64.074 C 128.349 64.074,129.538 63.132,130.819 61.980 C 145.060 49.174,166.484 39.373,185.741 36.854 C 188.389 36.507,191.222 36.091,192.037 35.929 C 195.759 35.190,210.734 35.520,217.245 36.486 M236.091 121.078 C 236.206 121.264,235.590 121.523,234.724 121.655 C 233.857 121.786,231.398 122.215,229.259 122.608 C 227.120 123.000,223.120 123.662,220.370 124.079 C 217.620 124.495,214.870 124.991,214.259 125.181 C 213.648 125.370,210.650 125.964,207.597 126.499 C 204.544 127.035,201.930 127.544,201.789 127.632 C 201.648 127.719,198.979 128.371,195.859 129.080 C 179.876 132.712,158.453 139.178,148.333 143.423 C 147.111 143.936,145.694 144.481,145.185 144.636 C 144.676 144.790,143.213 145.393,141.935 145.977 C 140.657 146.560,139.508 147.037,139.382 147.037 C 139.146 147.037,133.829 149.436,128.889 151.771 C 126.361 152.966,118.515 157.186,113.889 159.839 C 112.153 160.835,104.363 166.153,102.818 167.398 C 85.918 181.012,82.776 193.913,93.701 204.838 C 102.647 213.784,123.775 216.997,147.308 212.990 C 152.834 212.049,161.922 210.259,163.519 209.796 C 164.537 209.501,167.370 208.764,169.815 208.158 C 182.769 204.945,182.222 205.240,182.222 201.469 C 182.222 196.315,184.108 192.195,187.803 189.274 C 200.393 179.323,217.356 194.875,208.498 208.248 C 203.226 216.207,193.544 217.270,186.172 210.699 C 183.641 208.443,183.109 208.421,177.432 210.329 C 168.192 213.434,158.334 216.384,153.068 217.620 C 134.450 221.990,125.883 223.089,110.185 223.123 C 86.954 223.173,74.907 218.976,67.915 208.398 C 65.942 205.413,64.104 200.169,63.998 197.222 C 63.831 192.554,68.010 183.237,72.703 177.816 C 73.559 176.828,74.977 175.165,75.854 174.121 C 76.731 173.076,77.624 172.222,77.839 172.222 C 78.054 172.222,79.146 171.385,80.266 170.361 C 81.386 169.337,83.576 167.557,85.133 166.404 C 86.689 165.252,89.796 162.949,92.037 161.286 C 94.278 159.623,97.528 157.508,99.259 156.586 C 100.991 155.663,103.074 154.531,103.889 154.069 C 107.711 151.904,118.712 146.599,121.264 145.691 C 122.062 145.407,122.895 145.033,123.116 144.859 C 123.337 144.685,124.435 144.196,125.556 143.772 C 126.676 143.348,128.759 142.520,130.185 141.932 C 132.938 140.797,144.740 136.662,150.000 134.989 C 157.354 132.651,171.599 128.949,177.778 127.772 C 179.917 127.364,182.667 126.790,183.889 126.496 C 185.111 126.202,188.944 125.549,192.407 125.045 C 195.870 124.541,198.954 124.039,199.259 123.930 C 199.971 123.676,209.038 122.738,215.741 122.225 C 218.593 122.006,221.843 121.732,222.963 121.615 C 225.315 121.370,232.055 120.887,234.330 120.800 C 235.184 120.767,235.976 120.893,236.091 121.078 M277.778 121.059 C 277.778 121.558,273.468 122.909,260.556 126.459 C 258.111 127.131,253.861 128.301,251.111 129.060 C 248.361 129.818,244.111 130.983,241.667 131.649 C 235.712 133.272,228.632 135.232,222.778 136.879 C 220.130 137.624,216.296 138.698,214.259 139.266 C 208.893 140.761,201.747 142.830,198.333 143.876 C 196.704 144.375,193.120 145.473,190.370 146.315 C 172.120 151.900,150.829 159.859,140.465 164.968 C 139.396 165.495,138.449 165.926,138.361 165.926 C 137.823 165.926,127.642 171.674,124.074 173.992 C 106.667 185.299,102.157 196.262,110.186 207.749 C 112.333 210.820,112.088 210.938,108.802 208.418 C 104.773 205.328,101.311 201.117,98.836 196.293 C 95.178 189.163,97.516 181.338,105.476 174.074 C 111.300 168.760,124.404 161.028,134.259 157.091 C 135.889 156.440,137.722 155.666,138.333 155.371 C 141.301 153.939,158.680 147.738,164.243 146.126 C 166.017 145.612,167.596 145.112,167.753 145.015 C 168.016 144.853,171.291 143.905,181.481 141.040 C 189.892 138.676,203.557 135.259,212.996 133.159 C 216.172 132.452,219.005 131.788,219.293 131.682 C 219.580 131.576,222.481 130.971,225.741 130.338 C 229.000 129.705,234.583 128.617,238.148 127.920 C 245.429 126.498,255.196 124.672,265.926 122.728 C 269.898 122.008,273.731 121.285,274.444 121.122 C 276.249 120.710,277.778 120.681,277.778 121.059 M203.889 197.186 C 202.667 197.655,200.250 198.582,198.519 199.247 C 191.759 201.842,187.504 203.461,185.463 204.214 C 183.223 205.041,182.784 205.808,183.796 207.129 C 184.370 207.876,187.668 206.618,195.741 202.573 C 205.638 197.614,209.588 195.003,203.889 197.186 M366.063 276.019 C 366.349 277.085,366.349 278.841,366.063 279.907 L 365.840 280.741 199.957 280.741 L 34.074 280.741 34.074 277.963 L 34.074 275.185 199.957 275.185 L 365.840 275.185 366.063 276.019 M314.060 303.241 L 314.046 309.444 312.856 308.109 L 311.667 306.774 297.765 306.849 C 282.596 306.932,281.997 307.009,282.389 308.822 C 282.507 309.368,282.638 311.356,282.679 313.241 L 282.755 316.667 292.092 316.667 C 301.637 316.667,302.593 316.529,302.593 315.159 C 302.593 314.970,302.843 314.815,303.148 314.815 C 303.618 314.815,303.704 315.700,303.704 320.556 C 303.704 326.647,303.663 326.815,302.526 325.370 L 301.798 324.444 292.103 324.445 L 282.407 324.445 282.407 332.942 L 282.407 341.440 283.643 342.715 C 285.275 344.399,285.252 344.406,277.686 344.327 C 270.308 344.251,269.384 343.976,271.204 342.399 L 272.222 341.517 272.222 321.317 C 272.222 301.519,272.208 301.108,271.481 300.655 C 270.592 300.099,270.524 299.422,271.327 299.114 C 271.649 298.990,280.880 298.889,291.840 298.889 L 311.767 298.889 312.373 297.963 C 313.803 295.780,314.075 296.630,314.060 303.241 M58.670 298.093 C 58.777 298.267,59.912 298.509,61.192 298.630 C 63.544 298.854,66.881 299.785,72.549 301.798 C 74.679 302.554,76.045 302.837,76.901 302.698 C 78.677 302.410,78.561 303.154,76.075 307.998 C 73.077 313.837,72.771 314.101,71.377 312.050 C 66.455 304.806,45.185 304.054,45.185 311.124 C 45.185 313.634,46.998 314.410,55.556 315.562 C 74.579 318.122,79.074 320.841,79.074 329.786 C 79.074 336.271,75.386 340.585,67.550 343.264 C 64.167 344.421,55.159 345.548,54.358 344.915 C 54.100 344.711,52.806 344.438,51.481 344.308 C 49.202 344.084,40.476 341.772,37.862 340.699 C 36.882 340.297,36.508 340.291,35.903 340.669 C 33.903 341.918,34.134 340.052,36.647 334.676 C 39.004 329.632,39.386 329.338,40.558 331.667 C 40.762 332.074,42.012 332.964,43.335 333.644 C 53.575 338.910,70.140 336.541,68.707 330.016 C 68.224 327.816,65.461 326.962,56.016 326.090 C 42.861 324.877,39.635 323.607,35.914 318.178 C 34.629 316.305,34.419 311.558,35.510 309.090 C 36.544 306.753,39.533 302.593,40.177 302.593 C 40.458 302.593,41.698 301.991,42.934 301.255 C 45.126 299.949,49.554 298.524,51.456 298.513 C 51.979 298.510,52.657 298.346,52.963 298.148 C 53.649 297.705,58.402 297.659,58.670 298.093 M346.616 298.738 C 350.458 299.675,355.160 301.799,356.876 303.373 C 357.296 303.758,357.804 304.074,358.004 304.074 C 358.432 304.074,360.598 306.353,361.744 308.008 C 366.739 315.223,367.442 323.819,363.655 331.392 C 353.727 351.247,319.478 348.336,314.609 327.222 C 310.332 308.680,326.905 293.932,346.616 298.738 M133.499 299.157 C 133.724 299.742,132.900 300.741,132.193 300.741 C 132.050 300.741,131.852 307.282,131.751 315.278 C 131.554 330.990,131.325 333.308,129.645 336.637 C 124.277 347.270,95.105 347.946,88.258 337.596 C 86.318 334.662,86.180 333.416,85.951 316.651 L 85.741 301.265 84.444 300.088 L 83.148 298.911 90.256 298.900 C 97.927 298.888,98.519 299.042,96.827 300.611 L 95.808 301.555 96.035 316.170 C 96.286 332.318,96.214 331.848,98.845 334.296 C 103.037 338.195,114.981 338.033,118.774 334.026 C 120.892 331.788,120.891 331.790,121.033 315.822 L 121.164 301.088 120.304 300.385 C 118.565 298.963,119.877 298.639,127.646 298.569 C 132.641 298.524,133.281 298.588,133.499 299.157 M174.259 299.277 C 183.189 300.562,188.372 307.434,186.331 315.284 C 184.191 323.512,179.001 325.632,160.833 325.698 L 152.593 325.728 152.593 333.779 L 152.593 341.830 153.706 342.653 C 155.412 343.914,154.716 344.091,147.677 344.178 C 140.311 344.270,139.331 344.004,141.286 342.446 L 142.371 341.581 142.433 322.550 C 142.494 303.783,142.343 300.906,141.277 300.497 C 140.533 300.212,140.605 299.349,141.389 299.144 C 142.710 298.799,171.754 298.916,174.259 299.277 M205.037 299.319 C 205.187 299.561,204.953 300.033,204.503 300.397 L 203.704 301.045 203.704 321.384 L 203.704 341.723 204.635 342.597 C 206.155 344.025,205.380 344.218,198.200 344.198 C 190.901 344.177,190.042 343.999,191.810 342.879 L 192.963 342.149 192.963 321.695 L 192.963 301.240 192.037 300.370 C 191.528 299.892,191.111 299.363,191.111 299.195 C 191.111 298.693,204.725 298.815,205.037 299.319 M228.143 299.248 C 228.611 299.544,228.568 299.714,227.859 300.374 C 227.151 301.034,227.095 301.253,227.493 301.815 C 228.227 302.849,235.726 310.726,244.295 319.463 L 252.109 327.429 252.349 323.807 C 252.481 321.815,252.590 316.008,252.591 310.903 L 252.593 301.620 251.481 300.556 C 249.788 298.933,249.925 298.889,256.645 298.889 C 263.351 298.889,264.275 299.138,262.464 300.457 L 261.481 301.173 261.481 321.299 L 261.481 341.425 262.597 342.540 C 263.210 343.153,263.570 343.742,263.397 343.849 C 262.833 344.198,252.412 344.557,250.627 344.289 C 248.919 344.033,248.209 343.057,249.259 342.407 C 250.244 341.799,248.995 340.245,240.903 332.019 C 236.103 327.140,230.210 321.106,227.807 318.611 L 223.439 314.073 223.201 316.350 C 222.303 324.943,223.042 342.046,224.341 342.727 C 226.131 343.664,224.441 344.246,219.526 344.384 C 213.064 344.566,210.887 343.836,213.333 342.308 C 214.059 341.855,214.074 341.444,214.074 321.543 L 214.074 301.240 213.148 300.370 C 212.639 299.892,212.222 299.363,212.222 299.195 C 212.222 298.769,227.466 298.820,228.143 299.248 M335.464 306.308 C 319.213 310.365,319.734 332.576,336.157 335.802 C 344.349 337.412,351.685 334.080,354.852 327.311 C 360.407 315.438,348.887 302.958,335.464 306.308 M152.852 311.931 C 152.728 314.826,152.716 317.284,152.825 317.394 C 153.239 317.810,164.448 317.819,168.519 317.406 C 174.775 316.771,177.037 315.351,177.037 312.059 C 177.037 307.817,173.596 306.667,160.890 306.667 L 153.077 306.667 152.852 311.931 M368.441 364.106 L 368.550 366.545 345.695 366.791 C 316.740 367.103,255.148 367.103,130.617 366.790 L 32.222 366.544 32.222 364.012 L 32.222 361.481 200.278 361.574 L 368.333 361.667 368.441 364.106 " stroke="none" fill="#fbfbfb" fill-rule="evenodd"></path><path id="path2" d="M200.648 35.830 C 201.921 35.902,204.005 35.902,205.278 35.830 C 206.551 35.757,205.509 35.698,202.963 35.698 C 200.417 35.698,199.375 35.757,200.648 35.830 M394.981 52.963 C 394.981 59.991,395.031 62.866,395.092 59.352 C 395.153 55.838,395.153 50.088,395.092 46.574 C 395.031 43.060,394.981 45.935,394.981 52.963 M258.503 71.944 C 260.038 73.580,260.370 73.874,260.370 73.596 C 260.370 73.536,259.579 72.745,258.611 71.836 L 256.852 70.185 258.503 71.944 M94.899 142.870 C 94.840 143.650,94.907 143.759,95.183 143.333 C 95.619 142.662,95.665 141.852,95.266 141.852 C 95.107 141.852,94.942 142.310,94.899 142.870 M394.993 189.630 C 394.993 208.880,395.038 216.755,395.093 207.130 C 395.147 197.505,395.147 181.755,395.093 172.130 C 395.038 162.505,394.993 170.380,394.993 189.630 M113.333 182.037 C 112.434 182.954,111.781 183.704,111.883 183.704 C 111.985 183.704,112.804 182.954,113.704 182.037 C 114.603 181.120,115.256 180.370,115.154 180.370 C 115.052 180.370,114.233 181.120,113.333 182.037 M5.353 199.630 C 5.353 207.472,5.402 210.681,5.462 206.759 C 5.522 202.838,5.522 196.421,5.462 192.500 C 5.402 188.579,5.353 191.787,5.353 199.630 M97.143 189.815 C 97.146 190.833,97.218 191.206,97.303 190.643 C 97.388 190.080,97.386 189.247,97.298 188.791 C 97.210 188.336,97.140 188.796,97.143 189.815 M125.278 215.080 C 125.838 215.165,126.755 215.165,127.315 215.080 C 127.875 214.995,127.417 214.926,126.296 214.926 C 125.176 214.926,124.718 214.995,125.278 215.080 M259.051 219.352 L 257.963 220.556 259.167 219.468 C 259.829 218.869,260.370 218.328,260.370 218.264 C 260.370 217.978,260.065 218.230,259.051 219.352 M114.907 223.218 C 115.264 223.311,115.847 223.311,116.204 223.218 C 116.560 223.125,116.269 223.049,115.556 223.049 C 114.843 223.049,114.551 223.125,114.907 223.218 M153.611 261.753 C 154.477 261.831,155.894 261.831,156.759 261.753 C 157.625 261.675,156.917 261.611,155.185 261.611 C 153.454 261.611,152.745 261.675,153.611 261.753 M240.447 261.756 C 241.813 261.827,244.146 261.827,245.632 261.757 C 247.118 261.686,246.000 261.628,243.148 261.628 C 240.296 261.627,239.081 261.685,240.447 261.756 M34.321 275.432 C 33.981 275.772,34.008 280.286,34.352 280.498 C 34.505 280.593,34.630 279.436,34.630 277.928 C 34.630 276.419,34.616 275.185,34.599 275.185 C 34.582 275.185,34.457 275.296,34.321 275.432 M50.676 275.463 C 59.298 275.518,73.298 275.518,81.787 275.463 C 90.276 275.407,83.222 275.362,66.111 275.362 C 49.000 275.362,42.054 275.407,50.676 275.463 M148.611 275.463 C 176.875 275.515,223.125 275.515,251.389 275.463 C 279.653 275.411,256.528 275.368,200.000 275.368 C 143.472 275.368,120.347 275.411,148.611 275.463 M316.944 275.463 C 324.736 275.519,337.486 275.519,345.278 275.463 C 353.069 275.407,346.694 275.361,331.111 275.361 C 315.528 275.361,309.153 275.407,316.944 275.463 M365.551 278.039 C 365.452 279.506,365.504 280.573,365.667 280.409 C 365.831 280.244,365.912 279.044,365.848 277.740 L 365.732 275.370 365.551 278.039 M169.352 299.144 C 169.708 299.237,170.292 299.237,170.648 299.144 C 171.005 299.051,170.713 298.975,170.000 298.975 C 169.287 298.975,168.995 299.051,169.352 299.144 M261.284 321.481 C 261.284 332.583,261.331 337.125,261.389 331.574 C 261.446 326.023,261.446 316.940,261.389 311.389 C 261.331 305.838,261.284 310.380,261.284 321.481 M95.702 308.704 C 95.702 311.556,95.760 312.673,95.831 311.187 C 95.901 309.702,95.901 307.368,95.830 306.002 C 95.759 304.636,95.701 305.852,95.702 308.704 M231.296 306.667 C 232.092 307.481,232.826 308.148,232.928 308.148 C 233.030 308.148,232.462 307.481,231.667 306.667 C 230.871 305.852,230.137 305.185,230.035 305.185 C 229.933 305.185,230.501 305.852,231.296 306.667 M155.840 306.194 C 156.506 306.277,157.506 306.275,158.062 306.191 C 158.619 306.106,158.074 306.039,156.852 306.041 C 155.630 306.043,155.174 306.112,155.840 306.194 M283.247 324.342 C 283.913 324.425,284.913 324.423,285.470 324.339 C 286.026 324.254,285.481 324.187,284.259 324.189 C 283.037 324.191,282.582 324.260,283.247 324.342 M298.056 324.342 C 298.718 324.424,299.801 324.424,300.463 324.342 C 301.125 324.260,300.583 324.193,299.259 324.193 C 297.935 324.193,297.394 324.260,298.056 324.342 M153.618 325.454 C 154.283 325.536,155.283 325.534,155.840 325.450 C 156.397 325.365,155.852 325.298,154.630 325.300 C 153.407 325.302,152.952 325.371,153.618 325.454 M249.630 325.301 C 249.630 325.365,250.171 325.906,250.833 326.505 L 252.037 327.593 250.949 326.389 C 249.935 325.267,249.630 325.015,249.630 325.301 M242.963 333.889 C 243.654 334.602,244.303 335.185,244.405 335.185 C 244.506 335.185,244.024 334.602,243.333 333.889 C 242.642 333.176,241.994 332.593,241.892 332.593 C 241.790 332.593,242.272 333.176,242.963 333.889 M193.049 340.741 C 193.049 341.454,193.125 341.745,193.218 341.389 C 193.311 341.032,193.311 340.449,193.218 340.093 C 193.125 339.736,193.049 340.028,193.049 340.741 M144.722 343.975 C 145.588 344.053,147.005 344.053,147.870 343.975 C 148.736 343.897,148.028 343.833,146.296 343.833 C 144.565 343.833,143.856 343.897,144.722 343.975 M197.130 343.974 C 197.894 344.053,199.144 344.053,199.907 343.974 C 200.671 343.894,200.046 343.828,198.519 343.828 C 196.991 343.828,196.366 343.894,197.130 343.974 M214.912 343.969 C 215.475 344.055,216.309 344.052,216.764 343.964 C 217.220 343.877,216.759 343.807,215.741 343.810 C 214.722 343.812,214.350 343.884,214.912 343.969 M220.093 343.959 C 220.449 344.052,221.032 344.052,221.389 343.959 C 221.745 343.866,221.454 343.790,220.741 343.790 C 220.028 343.790,219.736 343.866,220.093 343.959 M252.685 343.977 C 253.856 344.051,255.773 344.051,256.944 343.977 C 258.116 343.904,257.157 343.844,254.815 343.844 C 252.472 343.844,251.514 343.904,252.685 343.977 M274.167 343.976 C 275.134 344.052,276.718 344.052,277.685 343.976 C 278.653 343.900,277.861 343.837,275.926 343.837 C 273.991 343.837,273.199 343.900,274.167 343.976 " stroke="none" fill="#aba4d1" fill-rule="evenodd"></path><path id="path3" d="M189.912 46.188 C 190.372 46.276,191.039 46.273,191.393 46.180 C 191.747 46.088,191.370 46.015,190.556 46.019 C 189.741 46.023,189.451 46.099,189.912 46.188 M394.994 110.185 C 394.994 134.833,395.038 144.971,395.093 132.714 C 395.147 120.456,395.147 100.290,395.093 87.899 C 395.038 75.508,394.994 85.537,394.994 110.185 M180.093 244.329 C 180.449 244.423,181.032 244.423,181.389 244.329 C 181.745 244.236,181.454 244.160,180.741 244.160 C 180.028 244.160,179.736 244.236,180.093 244.329 M194.537 245.070 C 194.894 245.163,195.477 245.163,195.833 245.070 C 196.190 244.977,195.898 244.901,195.185 244.901 C 194.472 244.901,194.181 244.977,194.537 245.070 M117.315 280.648 C 162.792 280.700,237.208 280.700,282.685 280.648 C 328.162 280.596,290.954 280.554,200.000 280.554 C 109.046 280.554,71.838 280.596,117.315 280.648 M130.463 299.144 C 130.819 299.237,131.403 299.237,131.759 299.144 C 132.116 299.051,131.824 298.975,131.111 298.975 C 130.398 298.975,130.106 299.051,130.463 299.144 M131.639 309.074 C 131.640 313.556,131.693 315.338,131.758 313.035 C 131.823 310.732,131.823 307.065,131.758 304.887 C 131.692 302.708,131.639 304.593,131.639 309.074 M252.745 308.148 C 252.745 311.713,252.800 313.171,252.868 311.389 C 252.936 309.606,252.936 306.690,252.868 304.907 C 252.800 303.125,252.745 304.583,252.745 308.148 M142.753 314.630 C 142.753 319.722,142.805 321.857,142.869 319.373 C 142.933 316.890,142.933 312.723,142.869 310.114 C 142.806 307.505,142.753 309.537,142.753 314.630 M152.328 315.741 C 152.331 316.759,152.403 317.132,152.488 316.569 C 152.573 316.006,152.571 315.173,152.483 314.717 C 152.395 314.262,152.325 314.722,152.328 315.741 M290.112 316.943 C 292.109 317.010,295.275 317.009,297.149 316.942 C 299.023 316.875,297.389 316.821,293.519 316.821 C 289.648 316.821,288.115 316.876,290.112 316.943 M227.778 318.250 C 227.778 318.306,229.069 319.598,230.648 321.120 L 233.519 323.889 230.750 321.019 C 228.179 318.353,227.778 317.979,227.778 318.250 M158.625 325.459 C 159.803 325.533,161.637 325.532,162.699 325.458 C 163.761 325.383,162.796 325.323,160.556 325.324 C 158.315 325.325,157.446 325.386,158.625 325.459 M152.380 333.519 C 152.380 338.000,152.434 339.782,152.499 337.479 C 152.564 335.177,152.564 331.510,152.498 329.331 C 152.433 327.153,152.380 329.037,152.380 333.519 M96.027 328.519 C 96.027 329.435,96.099 329.810,96.187 329.352 C 96.276 328.894,96.276 328.144,96.187 327.685 C 96.099 327.227,96.027 327.602,96.027 328.519 M193.104 335.370 C 193.105 337.815,193.165 338.767,193.238 337.485 C 193.310 336.204,193.309 334.204,193.236 333.041 C 193.163 331.878,193.104 332.926,193.104 335.370 M217.870 343.959 C 218.227 344.052,218.810 344.052,219.167 343.959 C 219.523 343.866,219.231 343.790,218.519 343.790 C 217.806 343.790,217.514 343.866,217.870 343.959 M108.951 366.574 C 150.847 366.626,219.513 366.626,261.544 366.574 C 303.574 366.522,269.296 366.480,185.370 366.480 C 101.444 366.480,67.056 366.522,108.951 366.574 M360.648 366.571 C 361.921 366.643,364.005 366.643,365.278 366.571 C 366.551 366.498,365.509 366.439,362.963 366.439 C 360.417 366.439,359.375 366.498,360.648 366.571 " stroke="none" fill="#958dc4" fill-rule="evenodd"></path><path id="path4" d="M296.667 5.460 C 354.177 5.713,395.098 5.714,394.943 5.463 C 394.848 5.310,367.823 5.225,334.886 5.275 C 301.948 5.324,284.750 5.407,296.667 5.460 M233.704 120.884 C 233.704 120.963,234.195 121.099,234.795 121.187 C 235.396 121.275,235.802 121.211,235.699 121.044 C 235.516 120.747,233.704 120.602,233.704 120.884 M94.550 137.593 C 94.553 138.611,94.625 138.984,94.710 138.421 C 94.795 137.858,94.793 137.025,94.705 136.569 C 94.617 136.113,94.548 136.574,94.550 137.593 M94.550 142.407 C 94.553 143.426,94.625 143.799,94.710 143.236 C 94.795 142.673,94.793 141.839,94.705 141.384 C 94.617 140.928,94.548 141.389,94.550 142.407 M5.346 154.815 C 5.346 160.009,5.398 162.134,5.462 159.537 C 5.526 156.940,5.526 152.690,5.462 150.093 C 5.398 147.495,5.346 149.620,5.346 154.815 M196.019 186.181 C 196.375 186.274,196.958 186.274,197.315 186.181 C 197.671 186.088,197.380 186.012,196.667 186.012 C 195.954 186.012,195.662 186.088,196.019 186.181 M130.833 214.700 C 131.190 214.793,131.773 214.793,132.130 214.700 C 132.486 214.607,132.194 214.530,131.481 214.530 C 130.769 214.530,130.477 214.607,130.833 214.700 M394.988 245.926 C 394.988 257.435,395.035 262.144,395.092 256.389 C 395.150 250.634,395.150 241.218,395.092 235.463 C 395.035 229.708,394.988 234.417,394.988 245.926 M5.346 245.000 C 5.346 250.093,5.398 252.227,5.462 249.744 C 5.526 247.260,5.526 243.094,5.462 240.485 C 5.398 237.875,5.346 239.907,5.346 245.000 M190.278 245.076 C 190.736 245.164,191.486 245.164,191.944 245.076 C 192.403 244.988,192.028 244.916,191.111 244.916 C 190.194 244.916,189.819 244.988,190.278 245.076 M197.875 248.414 C 198.438 248.499,199.272 248.497,199.727 248.409 C 200.183 248.321,199.722 248.251,198.704 248.254 C 197.685 248.257,197.312 248.329,197.875 248.414 M201.759 248.416 C 202.421 248.498,203.505 248.498,204.167 248.416 C 204.829 248.334,204.287 248.267,202.963 248.267 C 201.639 248.267,201.097 248.334,201.759 248.416 M173.056 262.124 C 174.023 262.200,175.606 262.200,176.574 262.124 C 177.542 262.048,176.750 261.985,174.815 261.985 C 172.880 261.985,172.088 262.048,173.056 262.124 M243.061 262.118 C 243.624 262.203,244.457 262.200,244.912 262.113 C 245.368 262.025,244.907 261.955,243.889 261.958 C 242.870 261.961,242.498 262.032,243.061 262.118 M126.204 298.786 C 126.866 298.869,127.949 298.869,128.611 298.786 C 129.273 298.704,128.731 298.637,127.407 298.637 C 126.083 298.637,125.542 298.704,126.204 298.786 M214.247 321.296 C 214.247 332.296,214.294 336.743,214.352 331.178 C 214.409 325.612,214.409 316.612,214.352 311.178 C 214.294 305.743,214.247 310.296,214.247 321.296 M156.400 306.569 C 157.374 306.646,158.874 306.645,159.733 306.567 C 160.593 306.489,159.796 306.427,157.963 306.428 C 156.130 306.429,155.426 306.492,156.400 306.569 M152.686 312.037 C 152.690 312.852,152.766 313.142,152.855 312.681 C 152.943 312.220,152.940 311.553,152.847 311.199 C 152.754 310.845,152.682 311.222,152.686 312.037 M193.092 315.185 C 193.092 316.917,193.156 317.625,193.234 316.759 C 193.312 315.894,193.312 314.477,193.234 313.611 C 193.156 312.745,193.092 313.454,193.092 315.185 M157.500 318.050 C 158.468 318.126,160.051 318.126,161.019 318.050 C 161.986 317.974,161.194 317.911,159.259 317.911 C 157.324 317.911,156.532 317.974,157.500 318.050 M121.226 324.630 C 121.228 325.852,121.297 326.307,121.380 325.642 C 121.462 324.976,121.460 323.976,121.376 323.419 C 121.291 322.863,121.224 323.407,121.226 324.630 M232.593 323.435 C 232.593 323.491,233.884 324.783,235.463 326.306 L 238.333 329.074 235.565 326.204 C 232.993 323.538,232.593 323.164,232.593 323.435 M166.578 325.447 C 167.039 325.536,167.706 325.532,168.060 325.440 C 168.414 325.347,168.037 325.274,167.222 325.279 C 166.407 325.283,166.118 325.359,166.578 325.447 M192.504 343.966 C 192.965 344.054,193.632 344.051,193.986 343.958 C 194.340 343.865,193.963 343.793,193.148 343.797 C 192.333 343.801,192.044 343.877,192.504 343.966 M203.056 343.959 C 203.412 344.052,203.995 344.052,204.352 343.959 C 204.708 343.866,204.417 343.790,203.704 343.790 C 202.991 343.790,202.699 343.866,203.056 343.959 M218.060 344.336 C 218.521 344.425,219.187 344.421,219.541 344.329 C 219.895 344.236,219.519 344.163,218.704 344.167 C 217.889 344.172,217.599 344.247,218.060 344.336 " stroke="none" fill="#cfcde5" fill-rule="evenodd"></path><path id="path5" d="M19.907 5.092 C 28.106 5.148,41.523 5.148,49.722 5.092 C 57.921 5.037,51.213 4.991,34.815 4.991 C 18.417 4.991,11.708 5.037,19.907 5.092 M126.468 66.389 L 124.630 68.333 126.574 66.495 C 128.381 64.788,128.688 64.444,128.412 64.444 C 128.353 64.444,127.478 65.319,126.468 66.389 M254.444 67.894 C 254.444 67.957,254.986 68.499,255.648 69.097 L 256.852 70.185 255.764 68.981 C 254.750 67.859,254.444 67.608,254.444 67.894 M124.245 75.278 L 122.407 77.222 124.352 75.384 C 126.159 73.676,126.466 73.333,126.190 73.333 C 126.131 73.333,125.256 74.208,124.245 75.278 M94.921 137.222 C 94.924 138.241,94.995 138.613,95.081 138.050 C 95.166 137.487,95.163 136.654,95.076 136.199 C 94.988 135.743,94.918 136.204,94.921 137.222 M95.012 140.479 C 94.853 140.844,94.827 141.247,94.954 141.374 C 95.330 141.750,95.634 141.222,95.460 140.492 C 95.307 139.845,95.287 139.844,95.012 140.479 M288.259 147.037 C 288.259 148.157,288.329 148.616,288.413 148.056 C 288.498 147.495,288.498 146.579,288.413 146.019 C 288.329 145.458,288.259 145.917,288.259 147.037 M307.130 150.185 C 307.135 151.000,307.210 151.290,307.299 150.829 C 307.388 150.368,307.384 149.702,307.292 149.348 C 307.199 148.993,307.126 149.370,307.130 150.185 M76.656 173.981 L 74.259 176.481 76.759 174.085 C 78.134 172.767,79.259 171.642,79.259 171.585 C 79.259 171.312,78.882 171.659,76.656 173.981 M104.242 175.648 L 102.778 177.222 104.352 175.758 C 105.816 174.397,106.096 174.074,105.816 174.074 C 105.755 174.074,105.047 174.782,104.242 175.648 M86.760 190.556 C 86.764 191.370,86.840 191.660,86.929 191.199 C 87.017 190.739,87.014 190.072,86.921 189.718 C 86.828 189.364,86.756 189.741,86.760 190.556 M182.316 200.926 C 182.320 201.741,182.396 202.030,182.484 201.570 C 182.573 201.109,182.569 200.442,182.477 200.088 C 182.384 199.734,182.312 200.111,182.316 200.926 M276.473 217.130 L 273.519 220.185 276.574 217.231 C 279.412 214.487,279.798 214.074,279.528 214.074 C 279.473 214.074,278.098 215.449,276.473 217.130 M123.056 222.478 C 123.412 222.571,123.995 222.571,124.352 222.478 C 124.708 222.384,124.417 222.308,123.704 222.308 C 122.991 222.308,122.699 222.384,123.056 222.478 M106.743 223.237 C 108.109 223.308,110.442 223.309,111.928 223.238 C 113.414 223.168,112.296 223.110,109.444 223.109 C 106.593 223.109,105.377 223.166,106.743 223.237 M149.619 234.794 C 150.123 235.181,150.650 235.426,150.791 235.339 C 150.932 235.252,151.132 235.390,151.235 235.646 C 151.378 236.000,151.430 236.003,151.452 235.658 C 151.468 235.408,150.990 234.950,150.389 234.639 C 148.894 233.866,148.512 233.943,149.619 234.794 M200.282 248.780 C 200.743 248.869,201.409 248.866,201.764 248.773 C 202.118 248.680,201.741 248.608,200.926 248.612 C 200.111 248.616,199.821 248.692,200.282 248.780 M168.637 261.759 C 174.305 261.817,183.471 261.817,189.008 261.759 C 194.544 261.701,189.907 261.654,178.704 261.654 C 167.500 261.654,162.970 261.702,168.637 261.759 M94.537 299.144 C 94.894 299.237,95.477 299.237,95.833 299.144 C 96.190 299.051,95.898 298.975,95.185 298.975 C 94.472 298.975,94.181 299.051,94.537 299.144 M121.574 299.144 C 121.931 299.237,122.514 299.237,122.870 299.144 C 123.227 299.051,122.935 298.975,122.222 298.975 C 121.509 298.975,121.218 299.051,121.574 299.144 M145.653 299.155 C 146.216 299.240,147.050 299.238,147.505 299.150 C 147.961 299.062,147.500 298.992,146.481 298.995 C 145.463 298.998,145.090 299.070,145.653 299.155 M165.470 299.157 C 166.135 299.240,167.135 299.238,167.692 299.154 C 168.248 299.069,167.704 299.002,166.481 299.004 C 165.259 299.006,164.804 299.075,165.470 299.157 M201.944 299.144 C 202.301 299.237,202.884 299.237,203.241 299.144 C 203.597 299.051,203.306 298.975,202.593 298.975 C 201.880 298.975,201.588 299.051,201.944 299.144 M214.167 299.154 C 214.727 299.239,215.644 299.239,216.204 299.154 C 216.764 299.069,216.306 299.000,215.185 299.000 C 214.065 299.000,213.606 299.069,214.167 299.154 M223.611 299.150 C 224.069 299.239,224.819 299.239,225.278 299.150 C 225.736 299.062,225.361 298.990,224.444 298.990 C 223.528 298.990,223.153 299.062,223.611 299.150 M275.463 299.160 C 276.329 299.238,277.745 299.238,278.611 299.160 C 279.477 299.082,278.769 299.018,277.037 299.018 C 275.306 299.018,274.597 299.082,275.463 299.160 M121.631 306.667 C 121.631 309.824,121.687 311.116,121.757 309.537 C 121.826 307.958,121.826 305.375,121.757 303.796 C 121.687 302.218,121.631 303.509,121.631 306.667 M203.136 321.481 C 203.136 332.787,203.183 337.412,203.240 331.759 C 203.298 326.106,203.298 316.856,203.240 311.204 C 203.183 305.551,203.136 310.176,203.136 321.481 M214.617 321.481 C 214.617 332.583,214.664 337.125,214.722 331.574 C 214.780 326.023,214.780 316.940,214.722 311.389 C 214.664 305.838,214.617 310.380,214.617 321.481 M142.679 304.444 C 142.679 305.157,142.755 305.449,142.848 305.093 C 142.941 304.736,142.941 304.153,142.848 303.796 C 142.755 303.440,142.679 303.731,142.679 304.444 M159.907 306.187 C 160.366 306.276,161.116 306.276,161.574 306.187 C 162.032 306.099,161.657 306.027,160.741 306.027 C 159.824 306.027,159.449 306.099,159.907 306.187 M288.611 306.572 C 290.597 306.639,293.847 306.639,295.833 306.572 C 297.819 306.506,296.194 306.451,292.222 306.451 C 288.250 306.451,286.625 306.506,288.611 306.572 M281.953 309.259 C 281.953 310.176,282.025 310.551,282.113 310.093 C 282.202 309.634,282.202 308.884,282.113 308.426 C 282.025 307.968,281.953 308.343,281.953 309.259 M152.341 311.852 C 152.341 313.176,152.408 313.718,152.490 313.056 C 152.572 312.394,152.572 311.310,152.490 310.648 C 152.408 309.986,152.341 310.528,152.341 311.852 M193.469 315.370 C 193.470 317.407,193.532 318.193,193.607 317.117 C 193.682 316.041,193.681 314.374,193.605 313.414 C 193.529 312.453,193.468 313.333,193.469 315.370 M34.901 313.333 C 34.901 314.046,34.977 314.338,35.070 313.981 C 35.163 313.625,35.163 313.042,35.070 312.685 C 34.977 312.329,34.901 312.620,34.901 313.333 M95.674 315.926 C 95.674 317.250,95.741 317.792,95.823 317.130 C 95.906 316.468,95.906 315.384,95.823 314.722 C 95.741 314.060,95.674 314.602,95.674 315.926 M252.741 319.815 C 252.741 322.870,252.799 324.071,252.868 322.483 C 252.938 320.895,252.937 318.395,252.867 316.928 C 252.797 315.460,252.740 316.759,252.741 319.815 M283.618 316.935 C 284.283 317.018,285.283 317.016,285.840 316.931 C 286.397 316.847,285.852 316.779,284.630 316.781 C 283.407 316.784,282.952 316.853,283.618 316.935 M165.838 318.040 C 166.298 318.128,166.965 318.125,167.319 318.032 C 167.673 317.940,167.296 317.867,166.481 317.871 C 165.667 317.875,165.377 317.951,165.838 318.040 M157.698 318.422 C 158.774 318.497,160.441 318.496,161.401 318.420 C 162.362 318.344,161.481 318.282,159.444 318.283 C 157.407 318.284,156.621 318.347,157.698 318.422 M246.481 322.593 C 247.896 324.019,249.138 325.185,249.239 325.185 C 249.341 325.185,248.267 324.019,246.852 322.593 C 245.437 321.167,244.196 320.000,244.094 320.000 C 243.992 320.000,245.066 321.167,246.481 322.593 M86.041 323.889 C 86.043 325.111,86.112 325.566,86.194 324.901 C 86.277 324.235,86.275 323.235,86.191 322.679 C 86.106 322.122,86.039 322.667,86.041 323.889 M131.212 325.185 C 131.212 326.102,131.284 326.477,131.372 326.019 C 131.461 325.560,131.461 324.810,131.372 324.352 C 131.284 323.894,131.212 324.269,131.212 325.185 M142.752 332.407 C 142.753 337.296,142.805 339.245,142.869 336.738 C 142.934 334.231,142.933 330.231,142.869 327.849 C 142.805 325.467,142.752 327.519,142.752 332.407 M235.741 326.296 C 237.156 327.722,238.397 328.889,238.499 328.889 C 238.601 328.889,237.526 327.722,236.111 326.296 C 234.696 324.870,233.455 323.704,233.353 323.704 C 233.251 323.704,234.326 324.870,235.741 326.296 M281.999 329.259 C 281.999 332.213,282.057 333.421,282.127 331.944 C 282.197 330.468,282.197 328.051,282.127 326.574 C 282.057 325.097,281.999 326.306,281.999 329.259 M222.726 328.519 C 222.726 330.454,222.789 331.245,222.865 330.278 C 222.941 329.310,222.941 327.727,222.865 326.759 C 222.789 325.792,222.726 326.583,222.726 328.519 M281.983 338.333 C 281.982 340.167,282.045 340.963,282.122 340.104 C 282.200 339.244,282.201 337.744,282.125 336.770 C 282.048 335.797,281.984 336.500,281.983 338.333 M359.239 336.944 L 357.963 338.333 359.352 337.057 C 360.645 335.869,360.911 335.556,360.628 335.556 C 360.566 335.556,359.941 336.181,359.239 336.944 M246.296 337.153 C 246.296 337.217,246.838 337.758,247.500 338.357 L 248.704 339.444 247.616 338.241 C 246.602 337.119,246.296 336.867,246.296 337.153 M212.776 342.966 C 212.373 343.617,213.422 343.728,218.906 343.611 L 224.259 343.496 218.589 343.415 C 214.923 343.362,213.000 343.202,213.148 342.963 C 213.274 342.759,213.294 342.593,213.192 342.593 C 213.090 342.593,212.903 342.760,212.776 342.966 M141.111 343.397 C 141.111 343.566,141.611 343.704,142.222 343.704 C 142.833 343.704,143.333 343.639,143.333 343.561 C 143.333 343.482,142.833 343.344,142.222 343.254 C 141.611 343.165,141.111 343.229,141.111 343.397 M251.215 343.606 C 252.189 343.683,253.689 343.682,254.548 343.604 C 255.408 343.526,254.611 343.464,252.778 343.465 C 250.944 343.466,250.241 343.529,251.215 343.606 M274.167 343.609 C 275.949 343.677,278.866 343.677,280.648 343.609 C 282.431 343.541,280.972 343.486,277.407 343.486 C 273.843 343.486,272.384 343.541,274.167 343.609 M54.167 344.329 C 54.523 344.423,55.106 344.423,55.463 344.329 C 55.819 344.236,55.528 344.160,54.815 344.160 C 54.102 344.160,53.810 344.236,54.167 344.329 M59.352 344.329 C 59.708 344.423,60.292 344.423,60.648 344.329 C 61.005 344.236,60.713 344.160,60.000 344.160 C 59.287 344.160,58.995 344.236,59.352 344.329 M107.130 344.714 C 107.894 344.794,109.144 344.794,109.907 344.714 C 110.671 344.634,110.046 344.569,108.519 344.569 C 106.991 344.569,106.366 344.634,107.130 344.714 M339.541 344.706 C 340.002 344.795,340.669 344.792,341.023 344.699 C 341.377 344.606,341.000 344.534,340.185 344.538 C 339.370 344.542,339.081 344.618,339.541 344.706 M93.148 361.758 C 256.298 362.010,368.061 362.010,367.906 361.759 C 367.811 361.606,292.286 361.523,200.071 361.573 C 107.856 361.623,59.741 361.707,93.148 361.758 M342.870 366.573 C 345.773 366.636,350.523 366.636,353.426 366.573 C 356.329 366.511,353.954 366.459,348.148 366.459 C 342.343 366.459,339.968 366.511,342.870 366.573 M200.000 394.815 L 5.000 395.001 199.886 395.093 C 329.509 395.154,394.848 395.061,395.000 394.815 C 395.126 394.611,395.177 394.486,395.114 394.537 C 395.052 394.587,307.250 394.712,200.000 394.815 " stroke="none" fill="#9484c4" fill-rule="evenodd"></path><path id="path6" d="M213.981 261.759 C 218.106 261.818,224.856 261.818,228.981 261.759 C 233.106 261.699,229.731 261.650,221.481 261.650 C 213.231 261.650,209.856 261.699,213.981 261.759 M234.815 310.556 C 235.506 311.269,236.155 311.852,236.256 311.852 C 236.358 311.852,235.876 311.269,235.185 310.556 C 234.494 309.843,233.845 309.259,233.744 309.259 C 233.642 309.259,234.124 309.843,234.815 310.556 " stroke="none" fill="#8c8cc4" fill-rule="evenodd"></path><path id="path7" d="M193.981 35.817 C 194.440 35.905,195.190 35.905,195.648 35.817 C 196.106 35.729,195.731 35.656,194.815 35.656 C 193.898 35.656,193.523 35.729,193.981 35.817 M209.907 35.817 C 210.366 35.905,211.116 35.905,211.574 35.817 C 212.032 35.729,211.657 35.656,210.741 35.656 C 209.824 35.656,209.449 35.729,209.907 35.817 M127.521 64.657 L 126.481 65.610 127.685 64.772 C 128.347 64.312,128.889 63.883,128.889 63.819 C 128.889 63.527,128.479 63.778,127.521 64.657 M5.353 132.037 C 5.353 139.574,5.402 142.605,5.463 138.772 C 5.523 134.939,5.523 128.773,5.462 125.068 C 5.402 121.364,5.353 124.500,5.353 132.037 M226.574 121.372 C 227.032 121.461,227.782 121.461,228.241 121.372 C 228.699 121.284,228.324 121.212,227.407 121.212 C 226.491 121.212,226.116 121.284,226.574 121.372 M287.864 145.185 C 287.864 145.898,287.940 146.190,288.033 145.833 C 288.126 145.477,288.126 144.894,288.033 144.537 C 287.940 144.181,287.864 144.472,287.864 145.185 M307.493 150.370 C 307.493 151.083,307.570 151.375,307.663 151.019 C 307.756 150.662,307.756 150.079,307.663 149.722 C 307.570 149.366,307.493 149.657,307.493 150.370 M287.508 155.556 C 287.508 156.472,287.581 156.847,287.669 156.389 C 287.757 155.931,287.757 155.181,287.669 154.722 C 287.581 154.264,287.508 154.639,287.508 155.556 M106.088 173.426 L 105.000 174.630 106.204 173.542 C 106.866 172.944,107.407 172.402,107.407 172.338 C 107.407 172.052,107.102 172.304,106.088 173.426 M76.088 173.796 L 75.000 175.000 76.204 173.912 C 76.866 173.314,77.407 172.772,77.407 172.708 C 77.407 172.422,77.102 172.674,76.088 173.796 M103.125 176.389 L 102.037 177.593 103.241 176.505 C 104.363 175.491,104.615 175.185,104.329 175.185 C 104.265 175.185,103.723 175.727,103.125 176.389 M210.852 200.370 C 210.852 201.491,210.921 201.949,211.006 201.389 C 211.091 200.829,211.091 199.912,211.006 199.352 C 210.921 198.792,210.852 199.250,210.852 200.370 M104.815 204.931 C 104.815 204.994,105.356 205.536,106.019 206.134 L 107.222 207.222 106.134 206.019 C 105.120 204.896,104.815 204.645,104.815 204.931 M185.556 210.185 C 186.247 210.898,186.895 211.481,186.997 211.481 C 187.099 211.481,186.617 210.898,185.926 210.185 C 185.235 209.472,184.586 208.889,184.484 208.889 C 184.382 208.889,184.865 209.472,185.556 210.185 M122.685 214.700 C 123.042 214.793,123.625 214.793,123.981 214.700 C 124.338 214.607,124.046 214.530,123.333 214.530 C 122.620 214.530,122.329 214.607,122.685 214.700 M259.621 218.426 L 256.481 221.667 259.722 218.527 C 262.732 215.610,263.132 215.185,262.862 215.185 C 262.807 215.185,261.348 216.644,259.621 218.426 M177.690 243.595 C 178.150 243.684,178.817 243.681,179.171 243.588 C 179.525 243.495,179.148 243.423,178.333 243.427 C 177.519 243.431,177.229 243.507,177.690 243.595 M187.135 245.081 C 187.698 245.166,188.531 245.163,188.987 245.076 C 189.442 244.988,188.981 244.918,187.963 244.921 C 186.944 244.924,186.572 244.995,187.135 245.081 M200.284 245.083 C 200.950 245.166,201.950 245.164,202.507 245.079 C 203.063 244.995,202.519 244.928,201.296 244.930 C 200.074 244.932,199.619 245.001,200.284 245.083 M194.537 245.440 C 194.894 245.534,195.477 245.534,195.833 245.440 C 196.190 245.347,195.898 245.271,195.185 245.271 C 194.472 245.271,194.181 245.347,194.537 245.440 M5.353 267.593 C 5.353 275.130,5.402 278.160,5.463 274.328 C 5.523 270.495,5.523 264.328,5.462 260.624 C 5.402 256.920,5.353 260.056,5.353 267.593 M163.611 262.127 C 165.088 262.197,167.505 262.197,168.981 262.127 C 170.458 262.057,169.250 261.999,166.296 261.999 C 163.343 261.999,162.134 262.057,163.611 262.127 M54.537 298.048 C 55.301 298.127,56.551 298.127,57.315 298.048 C 58.079 297.968,57.454 297.902,55.926 297.902 C 54.398 297.902,53.773 297.968,54.537 298.048 M341.574 298.033 C 341.931 298.126,342.514 298.126,342.870 298.033 C 343.227 297.940,342.935 297.864,342.222 297.864 C 341.509 297.864,341.218 297.940,341.574 298.033 M122.690 298.784 C 123.253 298.869,124.087 298.867,124.542 298.779 C 124.998 298.691,124.537 298.622,123.519 298.624 C 122.500 298.627,122.127 298.699,122.690 298.784 M130.000 298.725 C 131.402 299.030,133.333 299.082,133.333 298.815 C 133.333 298.652,132.458 298.538,131.389 298.561 C 130.319 298.585,129.694 298.659,130.000 298.725 M121.275 311.852 C 121.275 317.861,121.326 320.319,121.388 317.315 C 121.450 314.310,121.450 309.394,121.388 306.389 C 121.326 303.384,121.275 305.843,121.275 311.852 M203.423 321.320 L 203.333 341.713 204.537 342.801 L 205.741 343.889 204.725 342.761 L 203.710 341.633 203.611 321.279 L 203.512 300.926 203.423 321.320 M231.296 306.296 C 232.711 307.722,233.952 308.889,234.054 308.889 C 234.156 308.889,233.082 307.722,231.667 306.296 C 230.252 304.870,229.011 303.704,228.909 303.704 C 228.807 303.704,229.881 304.870,231.296 306.296 M161.950 306.562 C 162.513 306.647,163.346 306.645,163.801 306.557 C 164.257 306.469,163.796 306.399,162.778 306.402 C 161.759 306.405,161.387 306.477,161.950 306.562 M186.753 311.852 C 186.753 312.565,186.829 312.856,186.922 312.500 C 187.015 312.144,187.015 311.560,186.922 311.204 C 186.829 310.847,186.753 311.139,186.753 311.852 M142.385 323.333 C 142.385 328.935,142.436 331.227,142.499 328.426 C 142.562 325.625,142.562 321.042,142.499 318.241 C 142.436 315.440,142.385 317.731,142.385 323.333 M223.049 315.926 C 223.049 316.639,223.125 316.931,223.218 316.574 C 223.311 316.218,223.311 315.634,223.218 315.278 C 223.125 314.921,223.049 315.213,223.049 315.926 M229.444 320.370 C 231.065 322.000,232.473 323.333,232.575 323.333 C 232.677 323.333,231.435 322.000,229.815 320.370 C 228.195 318.741,226.786 317.407,226.684 317.407 C 226.582 317.407,227.824 318.741,229.444 320.370 M96.041 324.259 C 96.043 325.481,96.112 325.937,96.194 325.271 C 96.277 324.605,96.275 323.605,96.191 323.049 C 96.106 322.492,96.039 323.037,96.041 324.259 M252.316 323.889 C 252.320 324.704,252.396 324.993,252.484 324.533 C 252.573 324.072,252.569 323.405,252.477 323.051 C 252.384 322.697,252.312 323.074,252.316 323.889 M168.981 325.440 C 169.338 325.534,169.921 325.534,170.278 325.440 C 170.634 325.347,170.343 325.271,169.630 325.271 C 168.917 325.271,168.625 325.347,168.981 325.440 M158.796 325.829 C 159.866 325.903,161.616 325.903,162.685 325.829 C 163.755 325.754,162.880 325.693,160.741 325.693 C 158.602 325.693,157.727 325.754,158.796 325.829 M282.337 332.037 C 282.339 333.259,282.408 333.715,282.491 333.049 C 282.573 332.383,282.571 331.383,282.487 330.827 C 282.402 330.270,282.335 330.815,282.337 332.037 M143.796 344.346 C 144.764 344.423,146.347 344.423,147.315 344.346 C 148.282 344.270,147.491 344.208,145.556 344.208 C 143.620 344.208,142.829 344.270,143.796 344.346 M197.315 344.342 C 197.977 344.424,199.060 344.424,199.722 344.342 C 200.384 344.260,199.843 344.193,198.519 344.193 C 197.194 344.193,196.653 344.260,197.315 344.342 M214.537 344.339 C 215.097 344.424,216.014 344.424,216.574 344.339 C 217.134 344.254,216.676 344.185,215.556 344.185 C 214.435 344.185,213.977 344.254,214.537 344.339 M220.838 344.340 C 221.401 344.425,222.235 344.423,222.690 344.335 C 223.146 344.247,222.685 344.177,221.667 344.180 C 220.648 344.183,220.275 344.255,220.838 344.340 M252.515 344.349 C 253.796 344.421,255.796 344.421,256.959 344.347 C 258.122 344.274,257.074 344.215,254.630 344.215 C 252.185 344.216,251.233 344.276,252.515 344.349 M274.537 344.349 C 276.116 344.419,278.699 344.419,280.278 344.349 C 281.856 344.280,280.565 344.223,277.407 344.223 C 274.250 344.223,272.958 344.280,274.537 344.349 M54.249 344.798 C 54.380 345.011,55.339 345.185,56.380 345.185 C 58.722 345.185,58.578 344.994,55.986 344.663 C 54.646 344.492,54.086 344.535,54.249 344.798 M206.789 366.944 C 230.791 366.997,269.958 366.997,293.826 366.944 C 317.694 366.892,298.056 366.849,250.185 366.849 C 202.315 366.849,182.787 366.892,206.789 366.944 M394.978 383.333 C 394.978 389.139,395.029 391.514,395.092 388.611 C 395.154 385.708,395.154 380.958,395.092 378.056 C 395.029 375.153,394.978 377.528,394.978 383.333 M140.278 394.722 C 173.125 394.774,226.875 394.774,259.722 394.722 C 292.569 394.670,265.694 394.627,200.000 394.627 C 134.306 394.627,107.431 394.670,140.278 394.722 " stroke="none" fill="#dcd4ec" fill-rule="evenodd"></path><path id="path8" d="M394.986 23.519 C 394.986 32.889,395.034 36.669,395.092 31.919 C 395.151 27.169,395.151 19.502,395.092 14.882 C 395.033 10.262,394.985 14.148,394.986 23.519 M193.247 46.194 C 193.913 46.277,194.913 46.275,195.470 46.191 C 196.026 46.106,195.481 46.039,194.259 46.041 C 193.037 46.043,192.582 46.112,193.247 46.194 M5.349 174.815 C 5.349 180.824,5.400 183.282,5.462 180.278 C 5.524 177.273,5.524 172.356,5.462 169.352 C 5.400 166.347,5.349 168.806,5.349 174.815 M87.130 190.185 C 87.135 191.000,87.210 191.290,87.299 190.829 C 87.388 190.368,87.384 189.702,87.292 189.348 C 87.199 188.993,87.126 189.370,87.130 190.185 M5.350 224.815 C 5.350 231.028,5.400 233.569,5.462 230.463 C 5.524 227.356,5.524 222.273,5.462 219.167 C 5.400 216.060,5.350 218.602,5.350 224.815 M101.204 223.218 C 101.560 223.311,102.144 223.311,102.500 223.218 C 102.856 223.125,102.565 223.049,101.852 223.049 C 101.139 223.049,100.847 223.125,101.204 223.218 M149.907 261.743 C 150.366 261.831,151.116 261.831,151.574 261.743 C 152.032 261.655,151.657 261.582,150.741 261.582 C 149.824 261.582,149.449 261.655,149.907 261.743 M194.195 262.130 C 203.122 262.185,217.622 262.185,226.417 262.130 C 235.212 262.074,227.907 262.029,210.185 262.029 C 192.463 262.029,185.267 262.074,194.195 262.130 M361.389 275.453 C 362.051 275.535,363.134 275.535,363.796 275.453 C 364.458 275.371,363.917 275.304,362.593 275.304 C 361.269 275.304,360.727 275.371,361.389 275.453 M272.395 321.296 C 272.395 332.500,272.442 337.137,272.500 331.600 C 272.557 326.064,272.557 316.897,272.500 311.230 C 272.442 305.563,272.395 310.093,272.395 321.296 M193.103 308.148 C 193.103 310.491,193.163 311.449,193.237 310.278 C 193.310 309.106,193.310 307.190,193.237 306.019 C 193.163 304.847,193.103 305.806,193.103 308.148 M152.699 308.333 C 152.701 309.352,152.773 309.725,152.858 309.162 C 152.943 308.599,152.941 307.765,152.853 307.310 C 152.765 306.854,152.696 307.315,152.699 308.333 M294.185 306.943 C 295.977 307.011,298.811 307.010,300.481 306.942 C 302.152 306.873,300.685 306.818,297.222 306.818 C 293.759 306.819,292.392 306.875,294.185 306.943 M282.316 315.000 C 282.320 315.815,282.396 316.105,282.484 315.644 C 282.573 315.183,282.569 314.516,282.477 314.162 C 282.384 313.808,282.312 314.185,282.316 315.000 M131.613 320.556 C 131.612 322.389,131.674 323.186,131.752 322.326 C 131.830 321.466,131.831 319.966,131.754 318.993 C 131.678 318.019,131.614 318.722,131.613 320.556 M193.113 324.630 C 193.113 327.889,193.170 329.173,193.239 327.482 C 193.308 325.792,193.307 323.126,193.238 321.556 C 193.169 319.987,193.112 321.370,193.113 324.630 M247.037 322.778 C 248.349 324.102,249.506 325.185,249.608 325.185 C 249.710 325.185,248.720 324.102,247.407 322.778 C 246.095 321.454,244.938 320.370,244.836 320.370 C 244.734 320.370,245.725 321.454,247.037 322.778 M288.998 324.350 C 290.586 324.419,293.086 324.419,294.554 324.349 C 296.022 324.279,294.722 324.222,291.667 324.222 C 288.611 324.223,287.410 324.280,288.998 324.350 M283.106 342.477 C 283.490 342.941,283.659 343.494,283.500 343.773 C 283.278 344.166,283.321 344.170,283.728 343.792 C 284.147 343.403,284.081 343.187,283.333 342.496 C 282.455 341.685,282.450 341.685,283.106 342.477 M150.278 343.972 C 150.940 344.054,152.023 344.054,152.685 343.972 C 153.347 343.889,152.806 343.822,151.481 343.822 C 150.157 343.822,149.616 343.889,150.278 343.972 M259.352 343.959 C 259.708 344.052,260.292 344.052,260.648 343.959 C 261.005 343.866,260.713 343.790,260.000 343.790 C 259.287 343.790,258.995 343.866,259.352 343.959 " stroke="none" fill="#bcc4dc" fill-rule="evenodd"></path></g></svg>